<svg version="1.0" xmlns="http://www.w3.org/2000/svg"
 width="476.000000pt" height="864.000000pt" viewBox="0 0 476.000000 864.000000"
 preserveAspectRatio="xMidYMid meet">

<g transform="translate(0.000000,864.000000) scale(0.100000,-0.100000)"
fill="#000000" stroke="none">
<path d="M2993 8367 c-37 -35 -79 -70 -92 -77 -13 -6 -92 -16 -175 -21 -441
-28 -853 -161 -1037 -336 -90 -85 -260 -334 -343 -500 -44 -87 -76 -201 -76
-266 0 -52 -18 -96 -70 -167 -57 -79 -79 -134 -87 -214 -10 -113 26 -177 134
-235 63 -34 75 -60 67 -138 -7 -67 10 -113 41 -113 23 0 33 -38 41 -149 l7
-101 86 0 c47 0 100 -4 116 -9 17 -4 78 -45 135 -90 134 -104 351 -255 460
-319 93 -55 140 -93 140 -115 0 -35 -53 -87 -166 -162 -141 -93 -184 -127
-315 -246 -240 -220 -509 -576 -509 -676 0 -37 25 -77 70 -113 22 -17 40 -36
40 -41 0 -5 -52 -92 -117 -192 -64 -100 -179 -283 -256 -407 -154 -247 -235
-363 -269 -382 -12 -7 -63 -41 -113 -75 -120 -80 -157 -98 -250 -123 -97 -26
-145 -50 -179 -90 -32 -39 -32 -45 -1 -66 19 -13 48 -16 125 -15 73 0 100 -3
100 -12 0 -6 -28 -50 -63 -97 -34 -47 -73 -101 -85 -122 -21 -33 -21 -37 -6
-52 31 -32 154 10 251 86 30 22 56 38 59 35 3 -3 -19 -43 -49 -89 -84 -128
-105 -191 -72 -218 37 -31 126 25 314 198 63 58 116 101 118 95 2 -6 -15 -53
-37 -104 -62 -140 -92 -228 -85 -249 7 -23 44 -35 81 -26 62 16 192 171 264
316 89 179 125 172 161 -32 42 -239 83 -322 274 -548 111 -131 191 -245 243
-348 l47 -93 -35 -30 c-53 -45 -166 -121 -245 -163 -38 -21 -88 -52 -110 -69
l-40 -32 -130 0 c-116 0 -135 -2 -178 -23 -81 -41 -147 -141 -183 -282 -32
-123 8 -438 71 -565 110 -222 389 -450 564 -462 195 -14 461 193 461 358 0 89
-25 120 -160 199 -118 70 -170 114 -170 146 0 67 99 177 198 220 124 54 150
68 230 121 103 68 237 194 314 295 32 43 65 78 73 78 39 0 276 -367 291 -449
4 -23 18 -46 39 -63 37 -31 99 -144 115 -209 5 -24 15 -120 20 -214 16 -258
34 -301 141 -324 185 -40 517 46 871 225 294 150 444 305 456 474 9 126 -69
292 -173 371 -106 80 -197 99 -278 58 -23 -12 -96 -66 -163 -119 -108 -87
-232 -170 -253 -170 -4 0 -15 26 -25 58 -13 40 -32 70 -62 101 -44 44 -44 44
-103 38 -32 -2 -63 -2 -68 2 -6 3 -35 53 -65 111 -31 58 -80 146 -110 195 -75
123 -178 303 -178 309 0 4 12 6 28 6 84 0 124 100 227 565 63 283 102 436 115
449 12 12 56 -78 80 -166 11 -40 24 -112 28 -159 9 -86 27 -139 49 -146 7 -3
32 16 57 41 24 25 51 46 59 46 8 0 20 -13 27 -29 16 -39 64 -84 87 -79 21 4
67 91 84 163 26 109 26 109 70 25 21 -41 50 -85 64 -99 24 -24 25 -24 45 -6
34 30 64 146 56 217 -4 46 -3 59 7 55 6 -3 48 -21 92 -41 44 -19 96 -38 117
-41 32 -6 38 -4 53 18 14 22 15 33 4 87 -22 113 -131 241 -308 362 -94 64 -97
49 24 121 33 19 71 47 85 62 l25 27 -28 23 c-45 40 -99 50 -262 49 l-150 -1
-145 159 c-289 315 -392 443 -459 570 -66 123 -71 153 -81 453 -12 368 -35
485 -140 709 -32 70 -45 108 -38 112 6 4 72 8 147 10 358 7 661 143 925 414
205 210 265 349 266 612 0 186 -33 319 -107 429 -54 81 -66 120 -93 297 -37
244 -56 293 -184 475 -42 60 -76 111 -76 113 0 2 24 4 53 4 108 0 116 13 66
113 -111 218 -195 292 -377 327 -34 7 -62 13 -62 15 0 1 16 38 35 82 56 130
52 134 -89 74 -107 -46 -188 -71 -228 -71 -31 0 -39 13 -54 85 -8 33 -13 41
-36 43 -21 3 -41 -10 -95 -61z m92 -58 c1 -62 10 -72 59 -66 35 5 263 71 320
93 13 5 2 -17 -33 -66 -53 -76 -62 -104 -35 -114 9 -3 55 -6 103 -6 148 0 207
-43 322 -237 27 -46 49 -87 49 -92 0 -13 -95 -23 -121 -12 -37 14 -67 52 -113
141 l-43 82 -6 -74 c-5 -59 -14 -89 -49 -158 -48 -95 -72 -111 -82 -56 -4 19
-27 62 -52 96 -40 54 -47 60 -62 48 -9 -7 -60 -50 -113 -95 -53 -46 -100 -83
-103 -83 -4 0 -32 27 -63 60 -30 33 -66 63 -79 66 -51 13 -215 -119 -260 -208
-29 -57 -24 -58 -116 30 l-56 54 -34 -26 c-40 -30 -88 -87 -112 -133 -21 -42
-44 -54 -89 -46 -54 8 -84 -3 -139 -55 -176 -165 -322 -402 -383 -623 -9 -31
-22 -64 -30 -75 -14 -19 -15 -18 -62 6 -30 16 -53 36 -62 55 -32 70 -236 245
-286 245 -11 0 -30 6 -40 14 -17 12 -17 18 -5 92 49 304 354 744 603 871 187
94 642 203 855 203 117 0 259 49 281 96 17 38 36 24 36 -27z m669 -605 c161
-201 215 -319 242 -528 21 -166 39 -230 86 -309 81 -138 114 -282 105 -457 -7
-127 -27 -208 -78 -318 -73 -159 -188 -288 -349 -394 -173 -114 -339 -182
-524 -214 -121 -21 -364 -14 -536 16 -247 43 -402 110 -680 295 -381 254 -540
479 -540 766 0 31 -3 58 -6 62 -3 3 -21 -4 -40 -15 -46 -27 -147 -28 -201 -2
-70 35 -90 123 -58 248 29 109 75 156 156 156 91 0 197 -87 262 -217 44 -87
56 -97 105 -88 34 5 44 3 68 -20 24 -22 30 -24 42 -11 8 7 18 49 23 95 21 190
153 424 361 640 59 61 63 63 97 56 65 -14 100 -10 126 15 14 13 25 34 25 47 0
24 87 123 108 123 7 0 45 -35 86 -77 41 -43 76 -75 78 -73 2 3 21 40 42 83 41
85 155 211 202 223 30 8 57 -14 111 -93 20 -29 40 -53 45 -53 4 0 48 32 96 71
49 39 103 80 120 91 l32 20 44 -95 c24 -52 49 -98 55 -101 23 -14 52 18 92
102 23 48 47 93 52 100 13 17 46 -14 151 -144z m-2341 -1198 c9 -13 23 -48 32
-77 32 -106 68 -195 101 -250 19 -31 34 -67 34 -79 0 -21 -3 -22 -52 -18 -69
7 -84 27 -93 120 -7 85 -22 138 -37 138 -31 0 -48 34 -48 92 0 91 29 126 63
74z m1144 -1026 c60 -17 143 -34 187 -39 46 -5 82 -15 87 -23 16 -25 10 -102
-11 -136 -25 -40 -66 -58 -163 -74 -97 -15 -135 -6 -191 43 -85 75 -127 181
-92 234 22 33 50 32 183 -5z m-262 -197 c49 -139 132 -239 238 -289 96 -44
145 -26 188 71 11 25 22 45 24 45 2 0 24 -18 49 -39 76 -66 108 -64 141 8 10
23 24 41 31 41 17 0 40 -82 54 -190 6 -47 15 -200 19 -340 13 -369 29 -424
211 -715 132 -211 229 -422 255 -551 14 -73 -19 -99 -235 -179 -341 -128 -737
-209 -1146 -236 -231 -15 -404 -2 -613 47 l-24 5 35 37 c88 92 74 149 -41 172
-124 25 -150 44 -131 95 5 14 39 66 74 115 36 50 86 125 112 168 26 42 115
186 197 320 150 241 151 242 181 237 17 -3 75 -12 129 -19 l97 -13 0 46 c0
134 32 307 66 356 49 73 52 181 4 155 -30 -16 -47 -56 -89 -210 -21 -78 -41
-143 -43 -145 -6 -6 -245 60 -337 94 -83 30 -114 46 -225 115 -33 20 -63 36
-68 36 -41 0 76 -95 187 -152 97 -50 217 -91 327 -113 106 -21 128 -35 128
-80 0 -26 -4 -35 -17 -36 -101 -6 -376 62 -498 124 -81 40 -170 112 -185 148
-16 37 -9 60 37 136 181 299 441 559 758 761 44 28 81 51 81 51 1 1 14 -34 29
-76z m130 -48 c73 -49 117 -65 188 -65 63 0 87 -13 87 -49 0 -38 -38 -92 -73
-104 -61 -20 -175 57 -254 173 -68 100 -50 115 52 45z m485 10 c28 -33 -7
-175 -43 -175 -7 0 -34 19 -61 43 l-48 42 55 53 c59 55 77 62 97 37z m-1230
-1066 c85 -29 157 -53 159 -55 5 -4 -12 -31 -291 -461 -126 -194 -236 -369
-244 -389 -8 -19 -12 -44 -9 -55 11 -33 67 -68 127 -77 100 -16 137 -62 86
-109 -33 -29 -82 -43 -176 -50 -95 -7 -88 0 -116 -117 -25 -107 -108 -257
-209 -379 -44 -54 -68 -70 -91 -61 -25 10 -19 54 19 132 42 89 65 163 65 214
0 78 -39 60 -210 -94 -135 -122 -213 -183 -218 -170 -4 13 38 96 98 192 70
112 93 161 82 172 -16 16 -47 0 -139 -73 -89 -71 -198 -133 -214 -123 -12 7
13 49 84 136 123 154 120 163 -52 154 -84 -4 -132 -3 -136 4 -9 15 46 45 160
86 125 46 177 72 285 142 137 89 228 190 349 387 257 419 407 645 429 645 4 0
77 -23 162 -51z m2054 -785 c24 -15 51 -19 165 -20 75 -1 163 -9 196 -16 l60
-14 -77 -52 c-97 -65 -150 -111 -142 -123 3 -5 47 -37 97 -71 106 -71 255
-214 286 -275 21 -43 28 -107 12 -117 -38 -24 -271 128 -271 176 0 10 -3 18
-6 18 -13 0 -55 -28 -149 -100 -55 -42 -123 -86 -150 -98 -97 -44 -97 -44
-111 -97 -11 -45 -62 -168 -63 -154 -21 204 -59 348 -116 442 -19 32 -35 60
-35 63 0 2 18 11 40 20 22 9 51 30 65 46 22 26 25 39 25 112 0 150 -44 338
-116 495 -19 41 -34 77 -34 80 1 3 67 -62 148 -145 81 -83 160 -159 176 -170z
m-206 -281 c4 -45 -37 -82 -153 -138 -249 -120 -717 -236 -1075 -266 -313 -27
-774 38 -953 133 -67 36 -85 59 -60 79 25 21 154 15 274 -14 173 -42 254 -51
449 -50 432 0 857 84 1440 283 14 5 36 8 50 7 20 -2 26 -8 28 -34z m-205 -298
c-2 -48 -112 -509 -169 -707 -31 -109 -73 -218 -84 -218 -4 0 -10 22 -13 49
-8 66 -42 130 -121 226 -100 121 -149 185 -145 189 2 2 31 18 64 36 69 38 115
77 115 98 0 23 -46 6 -156 -59 -56 -33 -120 -67 -143 -76 -47 -18 -53 -46 -11
-51 55 -6 73 -14 117 -55 51 -46 193 -206 193 -216 0 -4 -33 -15 -72 -25 -102
-26 -223 -73 -358 -141 -175 -87 -273 -149 -412 -262 -71 -57 -130 -103 -131
-103 -2 0 -10 33 -17 73 -16 95 -58 201 -121 312 -67 116 -92 148 -214 275
-117 120 -147 164 -185 270 -32 86 -83 307 -76 325 3 9 26 7 93 -11 502 -135
1040 -106 1693 91 150 45 156 44 153 -20z m695 -14 c37 -23 57 -216 28 -257
-13 -17 -16 -17 -30 -4 -27 28 -96 165 -96 192 0 20 10 34 37 53 42 28 43 28
61 16z m-188 -223 c-25 -104 -40 -129 -64 -108 -18 14 -46 101 -46 142 0 21 8
31 32 44 46 24 81 33 92 23 5 -4 -1 -48 -14 -101z m-835 -628 c0 -30 -23 -37
-50 -15 -20 15 -20 15 0 30 27 22 50 15 50 -15z m-91 -50 c96 -106 230 -316
359 -562 l66 -126 -34 -27 c-64 -48 -293 -145 -343 -145 -11 0 -60 66 -134
179 -129 195 -266 381 -353 477 l-55 61 126 58 c179 82 286 125 310 125 13 0
37 -17 58 -40z m-473 -227 c60 -62 89 -101 89 -119 0 -27 -195 -106 -343 -139
-84 -18 -147 -14 -147 10 0 22 134 151 240 232 52 39 97 72 100 72 3 1 31 -25
61 -56z m-499 -162 c11 -128 53 -155 228 -148 86 3 122 10 198 37 51 17 96 29
99 26 21 -21 -152 -189 -302 -292 -75 -51 -209 -114 -244 -114 -10 0 -26 12
-36 26 -9 14 -32 32 -51 40 -22 9 -41 28 -54 54 -27 53 -60 193 -60 256 0 44
4 54 33 81 50 48 150 114 167 111 11 -2 17 -22 22 -77z m-280 -142 c23 -47 82
-285 75 -303 -9 -23 -137 -105 -175 -112 -41 -8 -71 17 -101 85 -30 72 -37
141 -16 184 33 69 161 193 189 184 6 -2 19 -19 28 -38z m-237 -49 c4 -6 -2
-34 -11 -63 -28 -81 -25 -170 9 -239 15 -31 42 -69 60 -84 43 -36 105 -31 172
17 96 69 120 82 148 82 115 0 4 -148 -176 -236 -125 -60 -167 -97 -167 -145 0
-22 9 -47 25 -68 55 -72 90 -66 161 28 26 35 51 67 55 72 4 5 29 -10 56 -34
26 -23 96 -66 154 -96 59 -29 116 -65 128 -80 41 -52 20 -120 -69 -217 -97
-106 -166 -118 -314 -57 -290 121 -500 400 -522 694 -15 187 65 398 159 425
44 13 124 13 132 1z m2821 -36 c97 -58 150 -117 165 -182 12 -56 -24 -125
-113 -215 -130 -132 -308 -249 -583 -384 -212 -104 -284 -126 -415 -126 -131
0 -170 14 -200 73 -38 75 -15 101 152 170 104 43 152 80 183 140 14 27 25 55
25 61 0 6 -40 53 -90 103 -49 51 -90 100 -90 109 0 23 109 130 154 151 99 47
165 -75 166 -309 0 -137 23 -168 106 -146 46 12 147 71 186 108 66 63 65 112
-3 202 -22 28 -39 55 -39 59 0 8 136 126 213 185 65 49 103 49 183 1z m-3132
-136 c-25 -88 -26 -316 -1 -408 25 -95 98 -235 161 -312 90 -109 185 -180 366
-274 70 -37 72 -58 6 -62 -94 -6 -233 89 -387 264 -175 198 -205 290 -197 606
3 134 7 169 22 198 43 81 56 76 30 -12z m2121 -98 c-10 -48 2 -68 78 -124 79
-58 103 -91 93 -129 -20 -81 -206 -172 -275 -135 -13 8 -32 34 -43 62 -10 26
-46 97 -79 157 -34 59 -58 112 -55 117 3 5 27 12 53 16 27 4 86 20 133 35 107
37 103 36 95 1z m602 -12 c25 -28 53 -81 53 -102 0 -30 -63 -86 -142 -126 -44
-22 -87 -40 -94 -40 -10 0 -14 14 -14 53 1 114 27 165 106 209 60 34 65 34 91
6z m633 -117 c0 -76 -36 -147 -115 -226 -211 -211 -773 -455 -1049 -455 -72 0
-146 22 -172 51 -31 34 -3 41 147 34 129 -6 139 -5 215 20 94 31 357 165 502
256 158 98 258 177 362 286 52 55 98 98 103 96 4 -2 7 -30 7 -62z m-2740 -147
c0 -22 -128 -146 -171 -167 -31 -14 -35 -14 -51 0 -41 37 -5 86 102 143 81 43
120 50 120 24z"/>
<path d="M3002 7364 c-22 -15 -57 -72 -49 -80 2 -2 24 12 48 31 25 19 63 41
85 49 l39 15 -50 0 c-31 1 -59 -5 -73 -15z"/>
<path d="M3736 7363 c-7 -19 9 -33 39 -33 11 0 33 -7 49 -15 44 -23 46 -8 4
31 -41 37 -82 44 -92 17z"/>
<path d="M3764 7151 c-51 -31 -65 -84 -72 -260 l-5 -154 39 8 c79 15 160 25
206 25 62 0 71 17 62 113 -8 87 -30 201 -45 228 -29 55 -127 76 -185 40z m121
-88 c-31 -27 -43 -29 -52 -6 -4 11 3 24 22 41 28 23 29 24 42 6 12 -17 11 -22
-12 -41z m-86 15 c13 -37 49 -78 68 -78 8 0 25 7 38 16 23 15 24 15 30 -8 3
-12 6 -52 8 -88 l2 -65 -48 -23 c-27 -13 -70 -26 -97 -29 -41 -5 -49 -3 -59
15 -29 55 -20 214 15 270 20 30 30 28 43 -10z"/>
<path d="M2959 7087 c-57 -38 -106 -143 -140 -301 -11 -50 -16 -93 -11 -98 5
-5 25 -2 46 7 30 13 71 16 194 14 l156 -2 14 49 c22 80 19 180 -8 248 -35 92
-54 106 -143 106 -61 0 -80 -4 -108 -23z m65 -43 c3 -9 6 -26 6 -38 0 -58 51
-81 111 -50 17 8 34 13 37 9 4 -4 9 -54 10 -111 l4 -104 -167 0 c-154 0 -166
1 -162 18 3 9 8 39 12 67 4 27 16 73 27 103 34 91 104 152 122 106z m95 -18
c18 -21 -14 -50 -40 -36 -22 12 -24 21 -7 38 16 16 33 15 47 -2z"/>
<path d="M1310 6844 c0 -5 25 -20 55 -33 30 -13 80 -46 111 -73 40 -35 60 -46
67 -39 29 29 -110 140 -187 148 -25 3 -46 2 -46 -3z"/>
<path d="M3575 6766 c8 -79 24 -125 47 -137 19 -10 32 -7 85 22 54 29 65 32
73 19 16 -25 11 -99 -10 -139 -23 -45 -45 -53 -113 -40 -59 11 -71 4 -38 -22
36 -29 68 -33 111 -14 72 33 100 84 100 186 0 76 -14 85 -96 63 -105 -29 -101
-29 -119 7 -10 17 -23 48 -31 68 l-14 36 5 -49z"/>
<path d="M2520 6594 c-40 -27 -100 -87 -100 -100 0 -8 13 -10 40 -7 26 4 46 1
57 -8 9 -8 49 -63 88 -124 87 -133 148 -202 229 -259 129 -90 243 -121 413
-114 177 8 365 84 477 192 89 87 55 77 -157 -46 -128 -75 -198 -93 -362 -93
-112 0 -151 4 -195 19 -86 30 -187 96 -248 161 -64 69 -164 219 -188 282 -15
39 -15 45 0 67 9 14 16 30 16 36 0 16 -43 12 -70 -6z"/>
<path d="M3614 5850 c-56 -47 -116 -80 -191 -104 -62 -21 -68 -36 -15 -36 77
0 232 68 276 121 55 65 2 79 -70 19z"/>
</g>
</svg>
