<svg version="1.0" xmlns="http://www.w3.org/2000/svg"
 width="544.000000pt" height="472.000000pt" viewBox="0 0 544.000000 472.000000"
 preserveAspectRatio="xMidYMid meet">

<g transform="translate(0.000000,472.000000) scale(0.100000,-0.100000)"
fill="#000000" stroke="none">
<path d="M4415 4435 c-32 -25 -69 -48 -82 -51 -14 -4 -82 0 -151 7 -82 9 -245
14 -457 14 -279 0 -345 -3 -427 -18 -113 -22 -220 -70 -318 -143 -90 -67 -397
-377 -444 -447 -21 -32 -55 -106 -77 -165 -39 -109 -49 -123 -136 -188 -61
-47 -121 -206 -108 -287 17 -99 76 -161 185 -191 72 -20 80 -34 80 -131 0
-154 82 -387 184 -524 14 -19 23 -38 19 -42 -13 -11 -268 -59 -315 -59 -72 0
-87 8 -99 53 -24 88 -134 145 -231 118 -24 -7 -59 -16 -78 -22 -19 -5 -137
-16 -261 -23 -192 -12 -237 -18 -298 -39 -244 -85 -485 -342 -542 -577 -20
-79 -17 -295 5 -398 33 -155 75 -259 155 -377 22 -32 38 -61 36 -63 -2 -2 -28
4 -57 14 -36 13 -80 19 -138 19 -75 -1 -93 -5 -150 -33 -36 -17 -99 -58 -140
-92 -41 -33 -95 -67 -120 -75 -40 -14 -193 -31 -330 -38 l-54 -2 -18 -125
c-10 -69 -21 -175 -24 -236 l-7 -111 33 -6 c59 -12 276 -7 364 8 48 9 164 40
257 70 93 30 182 55 198 55 17 0 63 -18 104 -39 87 -46 273 -108 442 -147 107
-25 139 -28 295 -29 195 0 252 11 370 68 83 41 183 139 238 233 44 76 101 134
132 134 10 0 25 3 33 6 28 10 44 -22 50 -105 12 -178 99 -243 446 -333 l160
-41 140 63 c77 35 156 76 175 92 33 27 35 31 29 78 l-6 50 47 19 c37 16 46 25
46 45 0 33 -53 77 -126 105 -32 13 -69 27 -80 31 -14 6 -24 21 -29 46 -4 22
-21 54 -39 75 -28 30 -35 49 -44 112 -7 42 -23 101 -37 133 -32 73 -32 104 3
137 31 30 91 57 126 57 14 0 31 9 40 21 13 19 21 21 60 15 33 -5 55 -3 80 9
19 9 40 14 46 10 22 -14 60 -109 140 -350 107 -325 126 -375 157 -407 26 -27
126 -66 227 -88 78 -17 238 -29 276 -22 31 7 37 13 50 54 8 26 18 50 22 54 4
4 48 -14 97 -39 119 -62 155 -67 228 -32 77 38 133 90 133 124 0 73 -172 161
-345 177 -45 4 -65 2 -80 -9 -18 -14 -18 -17 -5 -31 8 -8 65 -40 125 -71 131
-68 175 -99 175 -126 0 -52 -96 -48 -228 10 -40 18 -104 36 -149 42 -77 10
-150 24 -187 35 -13 4 -16 2 -11 -6 4 -7 44 -29 89 -49 97 -45 117 -64 92 -89
-32 -32 -202 -13 -383 44 -45 14 -88 33 -96 42 -7 10 -24 42 -37 72 -24 58
-238 669 -247 707 -4 18 3 26 43 45 38 18 54 33 69 65 11 23 31 50 45 61 14
11 43 54 63 96 27 53 44 76 57 76 22 0 30 -19 30 -75 0 -111 85 -447 145 -572
78 -160 209 -252 350 -243 25 1 22 4 -22 15 -173 47 -278 162 -347 382 -14 46
-43 172 -65 281 -22 109 -45 211 -51 226 -14 39 -13 54 8 60 9 3 99 10 199 15
211 12 304 29 425 77 228 91 473 274 582 435 63 94 129 336 130 479 1 55 -6
96 -26 155 -14 44 -29 91 -33 105 -4 14 -10 147 -15 295 -9 296 -15 333 -76
465 -19 41 -61 117 -93 170 -67 108 -91 154 -91 170 0 7 16 10 41 8 79 -6 74
41 -17 167 -19 27 -38 62 -41 77 -3 16 -17 37 -32 47 -45 32 -153 71 -241 87
-128 23 -134 25 -145 62 -5 17 -14 32 -20 32 -6 0 -38 -20 -70 -45z m87 -65
c23 -13 66 -22 134 -29 95 -9 204 -41 204 -61 0 -5 -15 -13 -32 -20 -37 -13
-40 -9 52 -63 49 -29 120 -104 120 -128 0 -15 -38 -10 -78 10 -47 23 -79 29
-240 41 -126 10 -184 22 -427 92 -63 18 -91 19 -290 15 -178 -4 -236 -9 -303
-26 -170 -43 -313 -136 -513 -333 -131 -130 -202 -229 -250 -350 -49 -121 -81
-178 -110 -200 -24 -18 -29 -19 -56 -5 -16 9 -42 34 -56 56 -32 48 -91 93
-152 117 l-44 16 26 72 c50 141 110 237 219 357 188 205 383 344 575 410 133
44 766 46 931 3 l67 -18 73 31 c88 37 107 39 150 13z m-383 -171 c46 -5 152
-32 235 -58 171 -55 226 -64 311 -52 80 11 114 0 167 -57 237 -253 362 -591
326 -883 -17 -140 -15 -188 9 -240 65 -136 53 -465 -22 -636 -50 -112 -148
-234 -263 -325 -67 -53 -280 -167 -342 -184 -22 -5 -19 -1 19 40 25 25 42 49
38 53 -4 4 -58 -10 -120 -31 -73 -25 -141 -40 -192 -45 l-80 -6 63 -24 c34
-13 65 -28 68 -32 7 -12 -214 -11 -361 1 -527 45 -923 211 -1161 487 -220 256
-328 541 -281 741 8 34 11 65 6 68 -4 2 -46 3 -93 2 -85 -3 -85 -3 -120 32
-43 41 -76 105 -76 146 0 42 51 142 94 187 44 44 104 77 143 77 22 0 47 -20
123 -100 65 -68 102 -100 117 -100 53 0 126 100 168 230 26 80 51 127 106 196
66 84 251 259 352 334 101 76 282 166 357 179 78 12 310 13 409 0z m-1949
-1864 c31 -16 70 -61 70 -81 0 -42 -74 -60 -89 -21 -9 21 -11 20 -63 -33 -89
-92 -174 -281 -219 -488 -15 -72 -22 -148 -26 -295 -6 -196 -6 -199 -27 -193
-53 15 -96 18 -96 8 0 -15 26 -28 73 -36 29 -6 40 -13 51 -39 7 -18 25 -46 39
-63 15 -18 27 -35 27 -39 0 -14 -55 7 -121 46 -110 66 -162 82 -264 83 -78 1
-98 -3 -148 -26 -65 -31 -168 -124 -202 -183 -12 -22 -26 -57 -29 -77 -13 -74
-50 -58 -48 21 1 58 27 120 72 172 36 42 54 114 26 103 -10 -4 -26 -26 -38
-50 -13 -29 -27 -44 -39 -44 -14 0 -22 -14 -34 -57 -9 -32 -18 -64 -21 -72 -3
-10 -13 -2 -30 23 -75 110 -126 266 -146 449 -10 93 -10 122 4 201 44 260 228
501 456 596 37 16 113 38 169 49 156 32 363 26 363 -11 0 -6 -14 -35 -31 -65
-17 -30 -29 -57 -26 -60 3 -3 45 33 94 79 48 47 99 92 113 101 30 21 101 22
140 2z m560 -131 c41 -27 100 -87 122 -122 17 -27 19 -42 13 -88 -5 -42 -3
-61 9 -79 25 -39 20 -95 -13 -146 -37 -55 -51 -149 -51 -330 0 -226 45 -461
134 -698 26 -69 46 -136 44 -150 -3 -26 -3 -26 97 -32 154 -10 285 -40 393
-91 65 -30 79 -53 38 -64 -25 -6 -181 10 -251 26 -53 12 -115 12 -115 0 0 -15
30 -27 114 -44 121 -25 211 -70 200 -101 -3 -7 -23 -25 -45 -40 l-39 -27 -35
31 c-20 17 -58 42 -85 56 -66 34 -198 77 -211 69 -17 -10 8 -31 46 -37 50 -8
225 -93 225 -109 0 -16 -51 -68 -66 -68 -6 0 -19 9 -30 21 -39 43 -204 108
-276 109 -36 0 -16 -17 40 -34 75 -24 197 -80 207 -96 25 -40 -77 -35 -274 16
-271 69 -319 111 -355 306 -37 200 -129 774 -142 888 -21 179 -29 511 -15 585
13 69 44 113 115 162 66 45 106 44 205 -7 43 -22 83 -40 91 -40 26 0 -23 40
-87 72 -52 25 -76 31 -131 31 -115 0 -190 -55 -212 -155 -46 -212 -5 -784 87
-1205 30 -138 29 -142 -42 -174 -87 -40 -108 -28 -205 114 -58 85 -118 150
-194 211 -59 47 -95 120 -132 262 -49 191 -43 331 22 559 29 99 124 320 161
372 6 8 90 17 250 28 133 9 263 20 290 25 72 12 76 11 103 -6z m225 -190 c25
-10 44 -56 65 -157 35 -171 89 -277 191 -373 67 -62 132 -89 219 -89 87 0 156
35 257 129 94 87 131 116 149 116 22 0 16 -36 -10 -67 -13 -15 -31 -53 -39
-84 -12 -40 -24 -59 -43 -69 -14 -8 -34 -30 -44 -50 -22 -44 -44 -64 -93 -84
-21 -8 -58 -36 -82 -60 -39 -41 -47 -44 -79 -39 -25 4 -44 0 -69 -16 -47 -29
-54 -27 -77 19 -16 31 -34 47 -77 68 -49 24 -58 33 -74 75 -9 26 -31 60 -48
76 -19 18 -31 39 -31 54 0 38 -18 77 -44 98 -24 19 -27 29 -41 111 -3 20 -21
55 -39 77 -30 35 -33 45 -29 84 4 30 0 54 -12 76 -17 34 -14 73 7 98 12 15 19
16 43 7z m164 -109 c21 -19 55 -67 76 -106 64 -123 146 -184 258 -196 67 -7
118 8 187 52 59 38 81 43 100 20 53 -64 -151 -220 -304 -232 -92 -8 -143 14
-220 91 -95 95 -166 251 -166 365 0 52 16 53 69 6z m252 -101 c85 -31 181 -62
214 -68 48 -10 60 -17 60 -32 0 -29 -49 -46 -145 -52 -99 -5 -148 10 -213 68
-43 37 -92 114 -82 130 3 5 8 10 9 10 2 0 72 -25 157 -56z m-431 -108 c6 -8
15 -39 19 -68 8 -59 19 -84 50 -112 15 -14 21 -31 21 -61 0 -37 5 -46 40 -74
33 -26 39 -36 34 -59 -8 -42 26 -79 92 -98 64 -18 68 -32 24 -92 -37 -52 -178
-172 -241 -207 -45 -24 -49 -25 -57 -8 -15 28 -69 305 -83 422 -23 203 6 371
64 371 14 0 30 -7 37 -14z m-1332 -567 c68 -16 236 -98 328 -159 151 -101 314
-295 360 -431 15 -41 14 -44 -17 -108 -61 -123 -168 -206 -321 -249 -93 -25
-431 -25 -543 2 -116 26 -227 62 -335 108 -161 68 -174 80 -139 129 l20 29
-23 -9 c-13 -5 -100 -45 -193 -89 -94 -44 -195 -87 -225 -95 -39 -11 -116 -17
-259 -19 -181 -3 -205 -1 -214 14 -16 24 8 48 49 48 49 0 60 18 67 112 4 46 9
100 13 121 l7 37 -49 -2 c-46 -3 -49 -2 -52 23 -2 19 4 33 24 48 35 28 44 27
89 -9 l37 -29 50 26 c32 17 74 28 116 33 80 7 93 14 197 98 89 73 177 119 248
128 72 10 128 -16 217 -101 89 -86 106 -95 247 -135 249 -71 328 -102 369
-147 24 -26 29 -24 36 22 3 17 39 34 98 44 2 1 0 5 -6 11 -5 5 -57 14 -115 19
-121 12 -214 42 -298 97 -110 73 -201 174 -201 224 0 14 11 42 25 61 37 49
133 127 180 143 49 18 150 20 213 5z m1555 -206 c37 -40 57 -94 57 -158 0 -74
-11 -92 -73 -121 -62 -28 -88 -30 -110 -6 -13 14 -97 185 -97 197 0 6 125 102
140 108 32 12 57 6 83 -20z m-1974 -117 c26 -14 116 -104 109 -111 -1 -2 -34
5 -72 14 -72 18 -116 52 -116 92 0 23 38 26 79 5z m1307 -214 c-24 -24 -40 -2
-19 27 14 21 17 22 26 6 6 -12 5 -22 -7 -33z m807 31 c15 -9 -13 -31 -49 -38
-77 -14 -130 24 -61 44 30 9 91 6 110 -6z m1379 -37 c94 -35 198 -94 198 -111
0 -5 -4 -15 -8 -21 -18 -27 -42 -21 -108 28 -38 27 -98 65 -134 84 -95 48
-101 54 -65 54 17 -1 69 -16 117 -34z m-2282 -16 c0 -18 -40 -32 -56 -20 -7 7
-11 16 -8 21 7 12 64 11 64 -1z m-2272 -148 c3 -16 -2 -22 -17 -22 -24 0 -35
15 -27 36 9 23 40 13 44 -14z m-3 -62 c4 -6 -7 -10 -24 -10 -17 0 -31 5 -31
10 0 6 11 10 24 10 14 0 28 -4 31 -10z"/>
<path d="M4205 3511 c-43 -11 -73 -29 -85 -51 -9 -17 -6 -16 32 5 24 14 63 27
87 31 29 4 39 9 30 15 -16 10 -22 10 -64 0z"/>
<path d="M4990 3366 c0 -18 57 -54 99 -62 41 -9 40 6 -4 45 -38 33 -95 43 -95
17z"/>
<path d="M2423 3302 c-35 -5 -28 -18 35 -56 65 -39 102 -76 126 -124 11 -21
23 -32 34 -30 48 9 -3 100 -95 169 -54 41 -68 46 -100 41z"/>
<path d="M4055 3119 c-47 -25 -115 -77 -115 -88 0 -5 35 0 78 10 84 21 139 24
162 9 8 -5 28 -37 45 -72 39 -79 65 -89 65 -26 0 83 -90 188 -161 188 -19 0
-52 -10 -74 -21z"/>
<path d="M4963 2990 c-26 -16 -73 -83 -73 -105 0 -16 32 -1 57 28 53 59 58 61
91 37 17 -12 35 -19 41 -16 18 12 12 44 -11 60 -30 21 -66 20 -105 -4z"/>
<path d="M3470 2942 c-30 -31 -86 -80 -124 -107 l-69 -49 31 -8 c40 -11 44
-19 80 -163 36 -142 63 -219 108 -300 136 -248 336 -345 709 -345 237 0 392
42 407 110 2 11 -6 15 -32 15 -34 0 -35 1 -38 42 -4 54 25 111 87 173 66 66
128 99 208 112 76 11 109 25 138 58 l20 23 -40 -6 c-153 -25 -249 -31 -490
-32 -269 0 -270 0 -348 27 -156 56 -397 191 -533 299 -84 66 -91 80 -65 123
21 33 29 86 13 86 -4 0 -32 -26 -62 -58z m117 -221 c77 -55 180 -122 229 -149
138 -78 144 -84 141 -143 -2 -46 1 -54 30 -79 38 -34 101 -55 137 -46 15 4 43
21 64 40 20 18 47 38 59 45 25 13 321 15 341 2 10 -6 3 -24 -31 -77 -53 -83
-77 -142 -77 -189 0 -21 -9 -44 -24 -62 l-24 -28 -192 -3 c-285 -5 -330 9
-368 115 -42 114 -117 163 -259 171 l-92 5 -30 96 c-73 233 -94 401 -50 401 4
0 70 -45 146 -99z m533 -294 c50 -25 58 -38 35 -61 -22 -22 -68 -20 -115 4
-42 22 -59 53 -39 76 15 18 55 12 119 -19z m-375 -186 c36 -16 50 -29 65 -63
38 -84 21 -115 -40 -74 -49 32 -170 145 -170 159 0 15 93 1 145 -22z"/>
<path d="M4767 2790 c-34 -10 -105 -62 -91 -67 6 -2 36 6 69 17 32 11 69 20
82 20 20 0 23 -5 23 -40 0 -95 -57 -137 -168 -125 -74 8 -75 -1 -7 -41 42 -24
45 -25 78 -9 109 51 170 205 97 242 -28 14 -43 15 -83 3z"/>
<path d="M1722 1898 c-35 -92 -63 -251 -60 -337 l3 -76 13 85 c7 47 27 145 43
218 34 149 34 197 1 110z"/>
</g>
</svg>
