<svg version="1.0" xmlns="http://www.w3.org/2000/svg"
 width="554.000000pt" height="1250.000000pt" viewBox="0 0 554.000000 1250.000000"
 preserveAspectRatio="xMidYMid meet">

<g transform="translate(0.000000,1250.000000) scale(0.100000,-0.100000)"
fill="#000000" stroke="none">
<path d="M3120 12483 c-47 -20 -192 -47 -390 -72 -288 -37 -490 -91 -675 -182
-273 -132 -454 -341 -528 -609 -37 -133 -31 -220 34 -484 28 -117 39 -180 39
-235 -1 -82 -3 -89 -68 -173 -102 -133 -135 -322 -86 -489 32 -106 88 -161
177 -174 60 -8 67 -23 67 -144 0 -140 38 -254 127 -380 26 -36 134 -155 241
-263 107 -108 192 -203 190 -210 -3 -7 -18 -14 -34 -16 -134 -12 -196 -64
-300 -254 -73 -131 -172 -258 -478 -613 -180 -209 -590 -723 -631 -790 -18
-31 -54 -118 -78 -193 -58 -177 -213 -748 -226 -832 -31 -196 -67 -882 -56
-1040 8 -121 36 -290 75 -457 38 -165 38 -209 0 -324 -56 -169 -75 -382 -45
-521 16 -79 49 -134 171 -283 48 -60 107 -137 132 -172 24 -35 55 -71 68 -79
32 -21 74 -11 112 29 42 43 62 95 62 162 0 30 2 55 5 55 3 0 35 -25 70 -55
124 -105 207 -125 267 -65 47 47 38 91 -59 295 -45 94 -90 201 -102 239 -22
70 -27 131 -13 140 5 3 51 -68 102 -157 133 -231 193 -325 324 -506 154 -215
170 -243 169 -302 -1 -75 -156 -417 -270 -597 -89 -140 -236 -236 -502 -326
-140 -47 -170 -66 -202 -128 -28 -55 -71 -81 -219 -133 -257 -91 -376 -158
-406 -232 -9 -21 -14 -73 -14 -146 0 -182 38 -285 119 -327 46 -23 51 -34 48
-115 -1 -51 4 -72 36 -138 107 -226 269 -409 549 -620 183 -138 302 -179 528
-181 130 -1 150 1 192 21 96 44 184 170 195 277 5 60 -17 111 -161 364 -114
200 -167 311 -164 341 4 34 34 53 202 126 180 78 324 163 460 271 110 89 279
258 368 369 30 39 69 83 85 98 l30 28 43 -108 c249 -629 324 -894 365 -1283
18 -170 27 -203 60 -218 36 -17 52 -48 75 -147 46 -199 138 -430 184 -460 38
-25 164 -47 276 -48 157 -2 220 32 220 119 0 52 26 44 153 -52 72 -55 108 -55
269 -4 156 49 383 138 483 187 175 88 356 236 451 370 95 131 154 309 154 458
-1 148 -27 205 -101 217 -73 13 -410 -31 -729 -94 -150 -30 -155 -30 -167 -12
-65 94 -118 183 -134 229 -10 30 -33 134 -50 232 -66 377 -104 489 -309 903
-206 414 -393 751 -541 970 -42 63 -87 136 -100 162 l-22 47 46 99 c89 189
225 565 242 668 8 51 31 87 75 116 48 32 65 74 89 218 24 141 40 173 90 178
40 4 75 -31 144 -146 81 -134 97 -186 108 -341 5 -75 14 -152 19 -171 20 -73
65 -120 115 -120 30 0 117 109 131 164 11 46 22 38 43 -34 23 -73 67 -135 108
-151 58 -22 105 40 125 166 l12 75 28 -53 c57 -106 122 -135 178 -79 37 38 42
76 38 289 l-3 173 50 -54 c28 -30 63 -58 78 -62 67 -16 121 78 113 197 -9 127
-62 235 -184 376 l-74 84 70 73 c101 104 116 177 45 223 -23 16 -48 18 -183
17 -85 -1 -218 -10 -296 -19 -171 -21 -161 -25 -267 114 -230 299 -664 1063
-791 1394 -92 237 -179 552 -197 714 -20 182 -84 426 -150 572 -16 35 -43 111
-59 168 -30 103 -52 154 -96 224 l-22 36 161 6 c185 7 220 16 311 81 193 139
433 452 582 761 109 224 151 383 142 536 -4 68 -10 86 -55 170 -27 52 -55 110
-63 129 -9 25 -15 153 -21 450 -4 228 -12 448 -18 488 -6 40 -31 127 -56 193
-25 66 -45 127 -45 134 0 8 17 19 39 25 47 12 127 66 154 103 25 32 14 50 -41
68 -82 26 -322 183 -322 210 0 6 19 28 43 49 28 26 39 42 32 48 -11 12 -122
27 -255 37 -97 7 -187 23 -194 34 -3 4 1 29 9 55 8 27 12 52 9 57 -8 14 -116
9 -154 -8z m76 -90 c-3 -21 -9 -47 -12 -59 -5 -20 -2 -21 188 -27 107 -3 202
-9 211 -13 23 -8 21 -37 -3 -59 -11 -10 -20 -26 -20 -35 0 -11 66 -61 185
-140 101 -67 183 -126 180 -130 -2 -3 -33 -21 -69 -40 -58 -29 -72 -32 -118
-27 -58 7 -69 3 -87 -30 -15 -30 -25 -29 -80 6 -82 53 -151 48 -151 -10 0 -23
-24 -25 -73 -4 -54 22 -82 19 -105 -12 l-21 -28 -63 24 c-91 34 -125 37 -151
13 -52 -47 -63 -47 -148 -3 -107 56 -189 74 -311 69 -79 -4 -107 -10 -152 -32
-150 -74 -183 -205 -170 -686 l7 -265 -62 -123 c-79 -158 -120 -261 -135 -341
-23 -126 -67 -104 -122 60 -46 136 -72 179 -158 264 -82 81 -93 106 -145 345
-61 279 -69 400 -36 500 30 90 103 230 161 307 125 164 337 288 618 363 61 16
246 52 411 79 165 27 311 54 325 60 14 5 45 10 69 10 l44 1 -7 -37z m-371
-601 c116 -57 143 -62 169 -33 30 33 65 40 121 25 89 -25 115 -27 156 -14 40
14 45 13 112 -15 13 -5 27 2 52 29 18 20 41 36 51 36 9 0 41 -14 71 -31 55
-32 54 -32 145 -13 24 5 30 0 57 -47 38 -66 66 -153 88 -273 14 -74 17 -166
18 -501 l2 -410 60 -111 c97 -176 106 -216 79 -356 -31 -158 -129 -369 -280
-598 -112 -169 -221 -302 -365 -444 l-121 -119 -187 6 c-209 6 -315 24 -490
82 -138 46 -224 91 -340 179 -304 229 -482 506 -500 778 l-6 87 53 51 c38 36
50 54 42 62 -7 7 -22 4 -49 -13 -31 -19 -52 -24 -108 -24 -88 0 -122 22 -161
101 -23 48 -27 69 -27 143 0 47 5 111 13 141 15 68 80 210 105 230 29 24 123
20 160 -7 62 -44 141 -216 152 -332 9 -85 14 -91 82 -91 65 0 75 7 86 60 21
109 115 352 174 446 48 79 53 117 35 309 -22 238 -16 468 16 549 31 80 81 132
150 157 45 16 75 19 167 16 111 -3 111 -3 218 -55z m-247 -2847 l204 -68 -7
-46 c-8 -61 -41 -198 -55 -236 -11 -29 -12 -29 -26 -10 -9 11 -34 55 -56 98
-45 87 -73 114 -127 122 -147 24 -231 58 -231 95 0 48 57 126 85 116 6 -2 102
-34 213 -71z m-343 42 c20 -16 13 -37 -13 -37 -9 0 -24 -5 -32 -10 -12 -8 -6
-18 35 -60 58 -59 154 -110 220 -118 25 -2 48 -8 50 -13 3 -4 -24 -64 -59
-133 -36 -70 -70 -152 -78 -188 -10 -44 -19 -64 -32 -66 -31 -6 -140 55 -205
114 -78 71 -178 195 -188 232 -9 39 36 118 113 195 90 90 146 115 189 84z
m610 -205 c100 -137 113 -188 34 -129 -37 27 -69 85 -69 127 0 37 9 38 35 2z
m-229 -149 c51 -110 80 -149 100 -132 7 6 25 47 40 92 15 45 28 84 31 86 7 9
96 -86 138 -150 113 -168 174 -370 207 -684 11 -110 16 -597 7 -705 -4 -41 7
-68 113 -285 278 -573 373 -964 393 -1625 7 -239 -5 -414 -32 -467 -28 -53
-70 -74 -288 -138 -228 -67 -381 -99 -575 -119 -463 -49 -717 -47 -1120 10
-209 30 -217 34 -249 118 -26 71 -68 306 -80 456 -20 240 -34 707 -28 925 9
290 26 379 94 487 16 24 16 31 4 60 -8 18 -15 51 -15 73 -1 32 3 40 19 43 43
8 83 60 245 317 100 160 160 282 167 338 l4 42 -28 -32 c-15 -18 -73 -110
-128 -205 -171 -296 -274 -438 -320 -438 -22 0 -27 -35 -10 -81 16 -49 20
-105 6 -113 -5 -3 -18 -25 -29 -49 -59 -127 -73 -402 -47 -963 17 -378 18
-545 2 -561 -5 -4 -100 -8 -210 -7 -227 1 -303 14 -372 63 -22 16 -59 38 -82
49 -23 12 -44 30 -47 40 -17 52 -25 193 -26 417 0 378 27 743 72 960 29 145
121 475 184 665 78 235 128 332 229 440 45 49 107 124 138 167 64 91 150 192
335 399 74 82 199 229 279 327 80 97 147 177 150 177 2 0 55 -46 116 -103 123
-113 180 -155 259 -192 98 -46 120 -34 139 72 16 89 133 323 160 323 5 0 30
-44 55 -97z m729 -1563 c27 -78 74 -168 180 -350 78 -135 198 -346 265 -469
67 -124 146 -263 176 -310 30 -47 57 -96 60 -108 4 -13 -3 -41 -15 -65 -22
-47 -154 -196 -240 -272 -52 -46 -55 -48 -63 -27 -4 12 -26 133 -48 269 -76
463 -153 702 -358 1127 l-97 200 1 197 c1 108 5 205 9 215 5 12 21 -34 50
-142 24 -88 60 -207 80 -265z m808 -1392 c104 -130 104 -131 72 -181 -15 -23
-98 -112 -184 -197 -118 -117 -175 -166 -236 -202 l-80 -47 -2 52 c-2 29 -8
100 -14 159 -12 124 -9 133 68 188 81 59 181 160 238 241 31 44 57 79 60 79 2
0 38 -42 78 -92z m722 -77 c26 -5 30 -11 33 -44 9 -103 -99 -171 -296 -186
-57 -4 -108 -13 -115 -20 -23 -23 16 -31 130 -24 l112 6 60 -61 c130 -133 209
-273 218 -386 9 -103 -27 -173 -76 -147 -10 6 -35 43 -56 83 -21 40 -66 114
-101 164 -73 107 -104 165 -104 194 0 12 -5 30 -11 41 -10 20 -11 20 -30 3
-10 -9 -19 -22 -19 -29 0 -6 -14 -39 -30 -72 -38 -76 -170 -206 -297 -291 -50
-34 -95 -66 -98 -73 -4 -6 2 -17 13 -24 26 -19 42 -87 42 -179 0 -111 -16
-172 -56 -215 l-34 -36 -24 29 c-29 35 -46 96 -46 164 0 132 -48 282 -141 438
l-70 118 169 170 c175 176 239 251 261 303 7 17 24 36 38 42 51 24 454 48 528
32z m-182 -643 c53 -110 72 -166 92 -272 26 -135 17 -246 -24 -297 l-18 -23
-26 26 c-34 34 -65 96 -158 318 l-78 185 77 78 c42 42 80 77 83 77 4 0 27 -42
52 -92z m-4041 -18 c101 -49 158 -60 302 -60 141 -1 293 -15 311 -30 8 -6 17
-31 20 -55 13 -84 -38 -132 -166 -155 -156 -28 -429 42 -502 130 -41 48 -85
210 -58 210 5 0 47 -18 93 -40z m3802 -195 c19 -47 45 -118 57 -157 28 -92 31
-209 7 -254 -19 -34 -84 -72 -99 -57 -5 5 -27 96 -49 201 -38 183 -49 284 -32
307 14 20 64 55 72 50 4 -3 24 -43 44 -90z m-3737 -89 c172 -75 307 -89 469
-48 123 32 146 28 156 -22 5 -21 37 -94 73 -161 92 -172 89 -225 -10 -225 -43
0 -105 52 -159 134 -45 68 -64 85 -76 66 -14 -23 -23 -137 -16 -209 7 -83 39
-176 105 -310 68 -138 89 -205 71 -225 -16 -21 -63 -20 -106 0 -57 27 -147
135 -198 237 -37 73 -49 109 -56 172 -10 76 -33 130 -55 127 -20 -3 -15 -56
16 -179 43 -172 52 -346 21 -416 -21 -47 -57 -75 -85 -64 -21 8 -55 86 -83
191 -21 81 -84 377 -84 399 0 5 -4 5 -10 2 -16 -10 -11 -131 10 -254 11 -63
18 -116 15 -119 -10 -11 -40 27 -66 84 -31 68 -59 169 -79 282 -7 39 -17 72
-21 72 -5 0 -9 -37 -11 -82 -3 -81 -3 -82 -18 -53 -25 50 -20 251 8 350 23 80
100 285 107 285 2 0 39 -15 82 -34z m2750 -144 c-7 -61 -31 -133 -114 -342
-90 -228 -163 -380 -181 -380 -31 0 -136 131 -173 216 -16 36 -19 56 -14 99 8
61 2 67 -26 31 -27 -34 -52 -40 -88 -22 -17 9 -37 16 -46 16 -15 0 -15 -3 2
-29 10 -16 76 -97 148 -181 346 -405 500 -644 805 -1251 272 -541 361 -793
388 -1104 11 -123 28 -180 79 -275 l35 -64 -44 -38 c-224 -197 -471 -346 -693
-418 -88 -29 -117 -33 -241 -38 -117 -4 -143 -2 -156 11 -11 11 -16 48 -21
144 -14 288 -102 627 -297 1138 -107 279 -134 367 -127 405 6 26 3 30 -28 40
-19 6 -37 16 -40 21 -4 5 8 29 26 54 18 25 29 48 26 51 -6 6 -15 1 -73 -41
-21 -15 -24 -12 -117 117 -120 167 -262 338 -451 543 -261 283 -491 579 -609
784 -73 127 -74 133 -17 144 55 11 87 39 102 88 13 44 1 102 -39 192 -14 31
-23 60 -20 63 3 3 54 -6 114 -20 178 -42 279 -49 598 -43 420 8 824 48 1080
106 72 16 150 30 174 30 l44 1 -6 -48z m-1485 -1309 c122 -119 220 -236 413
-497 227 -309 237 -333 168 -423 -162 -214 -380 -436 -515 -526 -185 -123
-509 -256 -628 -257 -14 0 -32 -5 -40 -10 -13 -9 -12 -12 4 -25 11 -8 35 -15
53 -15 39 0 41 -6 11 -37 -41 -44 -139 -26 -246 44 -129 86 -273 252 -349 402
-37 72 -38 77 -38 180 0 96 3 111 28 164 35 70 69 95 192 137 202 71 386 182
464 282 88 114 190 305 288 543 49 120 58 135 80 135 8 0 59 -44 115 -97z
m-1227 -1180 c29 -214 56 -262 268 -475 167 -168 211 -197 311 -207 94 -9 103
-16 200 -171 150 -238 256 -434 256 -475 0 -59 -72 -165 -142 -209 -93 -60
-292 -60 -461 -1 -211 73 -538 361 -721 634 -76 115 -82 141 -55 241 11 44 19
86 16 92 -3 7 -32 23 -66 36 -102 39 -151 123 -151 257 0 127 41 201 140 254
55 29 380 143 388 136 2 -2 10 -52 17 -112z m4532 -783 c35 -22 48 -67 46
-155 -3 -162 -96 -388 -204 -496 -163 -163 -741 -463 -953 -494 -57 -9 -69 -2
-188 112 -49 46 -95 83 -104 83 -19 0 -40 -49 -55 -133 l-12 -67 -169 0 c-200
0 -224 7 -267 75 -59 93 -159 441 -134 466 6 6 55 20 110 31 233 46 489 152
683 284 163 111 238 149 338 175 89 22 508 103 644 124 110 17 234 14 265 -5z"/>
<path d="M2017 11286 c-104 -63 -310 -246 -294 -262 9 -9 41 13 138 98 46 40
115 97 152 126 37 30 67 58 67 63 0 13 0 13 -63 -25z"/>
<path d="M2007 11098 c-18 -18 -28 -30 -23 -25 6 4 14 7 18 7 20 0 3 -32 -58
-105 -61 -74 -84 -106 -84 -119 0 -23 119 32 149 68 21 26 4 32 -27 10 -45
-33 -52 -36 -52 -21 0 8 26 43 59 78 50 55 91 115 91 134 0 17 -45 0 -73 -27z"/>
<path d="M1831 10980 c-45 -36 -63 -60 -45 -60 17 0 76 44 95 71 28 40 10 36
-50 -11z"/>
<path d="M2058 10838 c-22 -33 -69 -128 -64 -128 9 0 96 123 96 136 0 21 -16
17 -32 -8z"/>
<path d="M3571 11184 c-17 -14 -31 -30 -31 -35 0 -5 29 -6 68 -3 72 7 70 8
110 -45 23 -29 52 -23 52 12 0 24 -37 66 -77 86 -38 19 -89 13 -122 -15z"/>
<path d="M2792 11159 c-50 -25 -192 -161 -192 -184 0 -22 24 -8 102 61 99 87
123 96 225 88 85 -7 85 -7 74 14 -17 32 -43 42 -108 42 -39 0 -72 -7 -101 -21z"/>
<path d="M3470 10949 c-29 -107 -42 -204 -42 -319 -1 -139 15 -221 60 -304 32
-59 167 -205 229 -247 24 -17 43 -35 43 -40 0 -14 -118 -137 -145 -152 -11 -6
-94 -14 -185 -17 -91 -3 -174 -11 -184 -17 -19 -10 -19 -11 2 -22 30 -16 185
-34 253 -29 74 5 155 46 230 116 72 66 93 101 80 134 -12 31 -79 91 -126 114
-32 15 -145 135 -145 154 0 4 22 2 48 -3 64 -13 98 -3 143 41 105 106 101 437
-7 537 -63 59 -146 18 -210 -104 l-35 -66 5 50 c16 153 18 215 8 215 -6 0 -16
-19 -22 -41z m247 -107 c39 -51 59 -116 46 -152 -7 -20 -18 -27 -60 -34 -28
-5 -76 -5 -107 -2 -55 7 -56 8 -56 40 0 42 53 149 88 176 35 28 50 23 89 -28z
m-114 -253 c12 -6 34 -25 49 -42 23 -28 29 -30 54 -22 18 7 32 22 40 45 l12
35 1 -55 c1 -67 -24 -126 -68 -163 -81 -68 -182 6 -184 135 0 25 5 53 12 62
16 19 53 21 84 5z"/>
<path d="M2835 10906 c-16 -7 -40 -24 -52 -37 -53 -58 -133 -296 -133 -396 0
-120 85 -201 221 -211 48 -3 74 0 97 12 106 55 194 341 138 446 -29 53 -136
160 -181 181 -47 22 -51 22 -90 5z m83 -50 c37 -19 118 -107 139 -151 23 -48
8 -61 -82 -74 -93 -14 -265 -14 -265 -1 0 20 51 135 76 171 22 32 73 68 97 69
4 0 20 -6 35 -14z m-18 -306 c11 -11 20 -26 20 -34 0 -19 46 -29 73 -15 12 6
35 23 51 38 l29 26 -7 -30 c-35 -144 -144 -237 -260 -222 -57 8 -92 47 -113
130 -26 99 -1 127 120 127 54 0 71 -4 87 -20z m90 11 c0 -15 -28 -33 -40 -26
-8 5 -8 11 1 21 13 15 39 19 39 5z"/>
<path d="M1612 10578 c2 -16 14 -27 40 -35 60 -20 85 -41 118 -99 20 -36 37
-54 49 -54 48 0 30 48 -47 126 -76 77 -167 112 -160 62z"/>
<path d="M2575 10408 c10 -32 35 -71 42 -64 8 8 -28 86 -39 86 -5 0 -6 -10 -3
-22z"/>
<path d="M1727 10404 c-9 -9 -9 -67 -1 -88 3 -9 13 -16 21 -16 11 0 13 12 11
52 -3 48 -15 68 -31 52z"/>
<path d="M3143 10034 c-24 -24 -33 -38 -25 -41 16 -6 58 21 72 46 18 35 -7 32
-47 -5z"/>
<path d="M2740 9849 c-106 -60 -330 -316 -330 -376 0 -28 22 -10 57 45 20 31
104 126 186 210 83 83 149 152 146 152 -2 0 -29 -14 -59 -31z"/>
<path d="M3610 9700 c55 -93 74 -117 78 -97 4 18 -49 97 -88 132 -18 16 -16 9
10 -35z"/>
<path d="M3499 9613 c-24 -95 -67 -112 -279 -113 -149 0 -276 18 -425 59 -118
34 -150 37 -161 19 -11 -18 31 -46 104 -68 110 -34 352 -80 423 -80 110 0 325
46 349 75 10 12 16 152 7 161 -2 2 -10 -22 -18 -53z"/>
<path d="M3218 9272 c-33 -20 -36 -32 -9 -32 33 0 71 19 71 35 0 20 -28 19
-62 -3z"/>
<path d="M2757 8478 c-25 -19 -32 -71 -12 -91 26 -26 60 -21 89 14 31 36 32
50 8 72 -22 20 -62 22 -85 5z m49 -30 c4 -6 -1 -17 -11 -24 -23 -17 -29 -12
-20 15 7 23 20 27 31 9z"/>
<path d="M2770 8265 c-17 -21 -16 -64 3 -82 21 -22 71 -5 75 26 8 50 -49 91
-78 56z"/>
<path d="M2125 7810 c-3 -6 -11 -53 -16 -106 -6 -53 -26 -182 -45 -288 -58
-324 -55 -379 26 -418 94 -46 395 -67 493 -35 65 21 122 62 140 100 34 72 88
436 90 612 l2 100 -260 0 c-237 1 -267 3 -339 23 -93 26 -83 25 -91 12z m79
-59 c10 -16 72 -23 301 -31 127 -4 238 -11 248 -15 25 -10 21 -42 -8 -69 -32
-29 -113 -52 -235 -66 -109 -13 -193 -6 -264 21 -48 18 -66 17 -66 -1 0 -17
131 -72 183 -77 32 -3 97 3 169 16 120 22 174 26 202 15 20 -8 21 -64 1 -199
-24 -173 -64 -271 -127 -318 -36 -27 -158 -34 -297 -18 -125 15 -194 35 -222
64 -19 20 -20 30 -16 97 8 99 73 516 87 558 11 30 33 42 44 23z"/>
<path d="M4449 5251 c-13 -16 -35 -48 -48 -70 -14 -23 -32 -43 -41 -46 -34
-11 -111 -66 -105 -75 12 -19 62 -10 102 19 48 35 98 96 119 146 21 50 4 66
-27 26z"/>
<path d="M3426 2130 c-3 -25 -15 -121 -27 -215 -11 -93 -31 -229 -45 -302 -28
-153 -28 -157 -9 -121 51 93 122 571 97 653 -9 30 -9 30 -16 -15z"/>
<path d="M3589 1403 c-20 -21 -69 -83 -109 -138 -40 -55 -108 -134 -151 -176
-44 -42 -79 -80 -79 -83 0 -17 34 -2 82 36 70 55 150 138 206 213 88 119 125
226 51 148z"/>
<path d="M1143 2277 c-59 -64 -79 -149 -87 -367 -6 -166 -3 -164 19 10 19 147
36 222 72 308 28 69 27 84 -4 49z"/>
<path d="M1210 2072 c0 -49 102 -284 116 -269 6 6 -93 268 -106 281 -7 7 -10
2 -10 -12z"/>
</g>
</svg>
