<svg version="1.0" xmlns="http://www.w3.org/2000/svg"
 width="598.000000pt" height="1226.000000pt" viewBox="0 0 598.000000 1226.000000"
 preserveAspectRatio="xMidYMid meet">

<g transform="translate(0.000000,1226.000000) scale(0.100000,-0.100000)"
fill="#000000" stroke="none">
<path d="M3194 12189 c-118 -92 -123 -93 -309 -92 -88 1 -224 -2 -301 -7 -161
-11 -246 -36 -414 -120 -131 -66 -197 -113 -306 -218 -125 -122 -122 -121
-323 -147 -107 -13 -161 -32 -161 -56 0 -18 28 -64 55 -89 46 -43 69 -88 58
-113 -6 -12 -54 -69 -107 -126 -105 -113 -162 -211 -191 -326 -18 -72 -12 -82
49 -66 66 16 69 15 62 -20 -8 -41 6 -93 55 -202 22 -48 50 -127 63 -175 14
-48 34 -114 46 -147 15 -42 24 -97 29 -188 7 -104 12 -134 28 -155 29 -39 76
-53 157 -46 79 6 86 1 86 -61 0 -73 44 -139 198 -296 78 -80 142 -148 142
-151 0 -3 -33 -9 -72 -12 -175 -17 -330 -65 -474 -148 -215 -122 -430 -307
-568 -487 -195 -256 -471 -693 -601 -953 -97 -194 -103 -213 -77 -264 11 -22
39 -62 61 -89 23 -28 44 -60 47 -71 3 -12 -6 -68 -20 -125 -32 -130 -66 -328
-66 -384 0 -23 9 -68 20 -101 27 -76 46 -202 60 -384 21 -265 71 -474 152
-632 l40 -78 -15 -67 c-9 -38 -23 -122 -32 -188 -22 -160 -76 -430 -180 -890
-102 -450 -121 -545 -130 -645 -12 -139 41 -501 102 -683 40 -122 195 -438
285 -583 32 -50 98 -147 149 -215 164 -222 242 -375 338 -655 l52 -151 -72
-184 c-92 -237 -155 -411 -186 -513 -21 -69 -23 -92 -18 -156 12 -127 9 -162
-24 -265 -40 -123 -50 -224 -28 -278 13 -29 27 -43 64 -60 68 -31 268 -31 395
1 209 52 321 114 468 262 165 164 311 371 347 489 23 77 35 89 67 68 14 -10
34 -17 44 -17 40 0 169 106 199 164 23 43 18 110 -11 171 -43 87 -126 150
-232 176 -85 21 -102 34 -119 92 -9 28 -18 72 -22 97 -5 42 -2 49 43 109 27
35 59 80 72 100 35 55 26 112 -41 261 -68 153 -106 247 -158 399 -69 199 -64
228 111 674 101 260 195 517 320 881 40 115 79 225 87 244 l15 36 37 -60 c21
-32 75 -126 121 -209 46 -82 108 -189 137 -237 66 -106 82 -145 94 -219 5 -31
24 -88 41 -125 29 -62 33 -80 35 -174 18 -670 55 -1241 89 -1385 14 -62 33
-304 37 -484 l2 -104 82 -28 c108 -36 181 -77 198 -110 13 -25 12 -29 -15 -57
-52 -55 -158 -297 -175 -399 -14 -90 52 -201 150 -248 50 -23 141 -31 189 -15
20 6 56 34 85 66 l50 54 45 -59 c95 -124 153 -139 731 -192 405 -37 533 -36
690 5 182 47 325 136 325 202 0 50 -52 128 -149 224 -257 255 -616 407 -1116
471 -183 23 -228 33 -245 54 -16 19 11 51 86 101 113 75 174 144 174 195 0 12
-22 90 -49 173 -104 323 -174 765 -206 1306 -24 401 -45 565 -105 829 -43 188
-45 214 -25 267 9 25 21 42 25 37 5 -4 16 -48 25 -98 22 -123 53 -186 105
-221 31 -21 46 -25 58 -18 51 31 91 207 93 409 l1 110 58 -176 c83 -253 159
-389 219 -389 43 0 93 65 111 145 14 63 2 161 -51 420 -21 105 -39 199 -39
209 0 19 0 19 21 0 30 -27 96 -123 178 -259 83 -136 131 -191 178 -204 41 -12
88 1 120 31 20 19 23 30 23 102 0 235 -157 576 -378 821 -45 50 -82 93 -82 96
0 3 36 20 80 38 61 24 108 34 191 42 128 12 253 41 289 68 53 38 26 121 -52
163 -42 22 -51 23 -453 29 -344 5 -420 9 -470 23 -120 34 -175 80 -317 263
l-87 112 50 88 c78 139 99 243 69 353 -46 171 -179 262 -514 350 l-151 40 -51
54 c-59 62 -120 179 -164 316 -35 106 -57 219 -47 242 3 9 41 33 84 54 43 21
79 39 81 40 2 1 -19 47 -47 101 -60 120 -83 190 -115 342 -23 108 -34 183
-101 661 -29 211 -55 321 -91 393 -14 27 -23 51 -21 54 3 2 54 -17 113 -42
164 -70 279 -99 399 -99 133 0 194 23 275 104 72 72 117 163 159 318 59 215
112 316 246 462 119 130 139 171 104 211 -19 22 -21 32 -16 109 6 93 -4 129
-48 182 -14 16 -23 33 -20 38 2 4 23 10 46 14 50 8 145 92 157 140 8 28 12 31
48 32 64 1 67 7 59 88 -7 81 -44 199 -80 261 -30 51 -32 90 -5 130 32 48 26
60 -32 76 -65 17 -85 45 -129 177 -74 221 -104 275 -257 459 -55 67 -98 124
-95 127 4 3 20 6 37 6 17 0 38 5 46 10 11 7 2 10 -31 10 -65 0 -145 26 -182
60 l-32 29 33 60 c17 33 32 64 32 70 0 17 -35 13 -106 -14 -81 -31 -115 -31
-210 -3 l-75 21 103 98 c57 54 100 98 97 99 -4 0 -42 -28 -85 -61z m-366 -135
c75 -9 138 -17 139 -18 2 -1 -29 -20 -67 -42 -38 -21 -66 -40 -62 -42 4 -1 48
11 97 28 102 34 163 37 220 11 l40 -19 -55 -26 -55 -26 80 6 c90 6 130 -4 210
-54 52 -33 51 -34 -33 -47 -43 -7 -44 -7 -40 21 4 40 -25 43 -62 6 -35 -36
-37 -47 -9 -63 15 -8 42 -8 102 0 147 20 130 28 273 -126 139 -150 190 -220
221 -309 123 -342 155 -685 79 -850 -24 -52 -54 -76 -43 -34 8 29 -11 35 -37
11 -29 -27 -42 -27 -112 6 -43 20 -77 28 -128 29 -77 2 -85 9 -86 69 -1 37 -2
38 -15 21 -60 -80 -31 -318 56 -449 36 -55 98 -96 214 -142 100 -39 125 -58
125 -94 -1 -37 -59 -112 -116 -150 -95 -62 -193 -74 -319 -38 -55 16 -78 12
-73 -11 5 -24 75 -43 176 -49 65 -4 95 -10 99 -19 8 -21 -125 -408 -173 -504
-79 -158 -175 -222 -332 -222 -132 0 -367 100 -602 257 -148 99 -532 395 -608
469 -103 100 -124 192 -82 371 36 156 22 174 -47 59 -51 -85 -100 -131 -148
-140 -84 -15 -119 39 -109 165 6 71 4 88 -27 187 -31 100 -34 119 -34 239 0
74 5 148 13 171 16 53 51 105 84 123 62 35 163 -36 269 -191 65 -95 125 -168
139 -168 4 0 18 11 32 24 40 41 60 125 68 286 3 80 9 151 14 158 4 6 18 12 31
12 63 0 67 19 29 142 -71 226 -229 465 -329 498 -48 16 -45 40 9 94 110 110
301 229 521 323 154 66 231 74 463 47z m612 -22 c0 -14 -64 -70 -84 -74 -38
-6 -26 22 20 52 49 31 64 36 64 22z m-1617 -486 c92 -38 274 -340 294 -488 5
-33 2 -38 -33 -61 l-39 -24 0 -154 c0 -156 -12 -225 -42 -250 -18 -16 -43 7
-106 101 -114 168 -182 216 -300 211 -47 -2 -110 -70 -153 -166 -21 -47 -41
-85 -44 -85 -8 0 -50 107 -50 128 0 9 10 40 22 69 18 45 19 54 8 69 -11 12
-24 15 -56 10 -117 -16 -58 106 159 331 l109 112 -71 78 c-75 81 -85 108 -48
123 37 15 313 12 350 -4z m2227 -553 c-1 -5 -7 -19 -15 -33 -22 -39 -18 -60
28 -156 57 -116 79 -184 75 -231 -3 -33 -7 -38 -30 -41 -16 -2 -41 -19 -63
-45 -76 -86 -108 -117 -122 -117 -8 0 -13 3 -11 8 2 4 16 34 32 66 29 58 30
62 37 285 5 124 11 236 14 249 4 15 13 22 30 22 14 0 25 -3 25 -7z m-410 -536
c37 -18 37 -50 0 -81 -49 -41 -111 -31 -131 21 -16 42 11 73 64 73 23 0 53 -6
67 -13z m98 -83 c22 -15 31 -54 13 -54 -19 0 -64 47 -57 58 9 16 17 15 44 -4z
m-100 -85 c152 -32 165 -70 28 -77 -84 -5 -108 5 -136 51 -34 56 -33 56 108
26z m230 -98 c41 -72 20 -141 -42 -141 -34 0 -196 74 -196 89 0 4 24 13 53 20
28 6 75 25 102 40 28 16 53 29 56 30 3 1 15 -16 27 -38z m-1928 -876 c0 -3
-15 -36 -34 -73 -108 -214 -106 -401 4 -540 46 -59 149 -142 219 -177 51 -26
52 -26 83 -8 18 10 59 56 91 102 32 45 61 80 64 77 9 -8 -27 -104 -138 -367
-135 -324 -184 -457 -217 -589 -24 -101 -25 -119 -29 -487 l-5 -383 -21 5
c-12 3 -110 21 -217 40 -202 37 -742 142 -772 151 -24 7 -23 35 2 66 15 20 31
26 75 31 68 7 78 14 94 69 18 60 151 369 207 480 103 205 285 439 370 474 39
17 51 32 30 40 -23 9 -21 16 24 72 22 27 40 53 40 56 0 59 -290 -250 -425
-454 -104 -157 -245 -440 -295 -592 -12 -35 -29 -69 -38 -75 -8 -7 -43 -13
-77 -13 -193 0 -479 154 -586 316 -26 40 -25 51 20 151 115 262 299 516 590
816 170 176 258 280 242 285 -15 5 -61 -29 -165 -123 -49 -44 -111 -100 -139
-125 l-51 -45 51 76 c226 334 572 613 888 715 107 35 115 37 115 29z m160 -4
c0 -5 -7 -28 -16 -52 -11 -29 -17 -80 -18 -149 -1 -98 1 -108 26 -152 46 -77
138 -138 210 -138 40 0 78 -10 78 -19 0 -17 -65 -103 -132 -175 l-73 -79 -30
16 c-66 34 -201 183 -234 258 -64 147 -15 357 107 456 50 41 82 54 82 34z
m251 -74 c157 -105 239 -165 239 -176 0 -15 -85 -125 -119 -153 -41 -35 -90
-44 -164 -30 -54 10 -171 68 -165 82 2 3 29 50 60 105 31 55 58 108 60 117 7
40 -21 16 -81 -68 l-63 -89 4 105 c3 76 9 115 22 140 38 71 56 68 207 -33z
m285 -370 c25 -53 34 -85 34 -123 0 -70 -14 -80 -68 -49 -68 38 -134 96 -128
112 11 27 111 141 119 136 5 -3 24 -37 43 -76z m-154 -173 c51 -44 120 -82
183 -101 16 -5 35 -20 42 -33 6 -14 21 -115 32 -225 40 -377 88 -614 157 -765
20 -44 34 -83 31 -86 -25 -25 -519 -166 -533 -152 -14 14 79 466 146 708 22
80 40 158 40 174 0 28 0 29 -20 11 -26 -24 -54 -100 -101 -280 -44 -170 -122
-554 -140 -691 -13 -99 -11 -117 36 -293 15 -56 22 -98 16 -104 -7 -7 -308 19
-318 28 -2 1 -10 69 -19 151 -21 199 -14 496 15 639 39 188 107 382 234 665
82 184 127 311 127 361 0 21 4 39 9 39 5 0 33 -21 63 -46z m334 -1484 c43
-166 86 -281 134 -363 33 -57 36 -67 21 -67 -23 0 -449 59 -478 67 -19 4 -30
28 -68 143 -53 164 -60 240 -22 263 12 8 54 19 94 26 39 6 104 22 145 35 40
14 88 24 107 23 l34 -2 33 -125z m-2050 -15 c19 -3 50 -8 70 -11 47 -7 70 -32
78 -86 8 -55 37 -84 102 -104 63 -19 640 -119 804 -138 69 -9 251 -27 405 -41
620 -57 1115 -144 1285 -227 79 -38 167 -124 199 -193 65 -140 24 -282 -131
-447 -68 -74 -85 -75 -57 -5 62 153 72 225 39 292 -28 57 -88 125 -111 125
-28 0 -24 -10 26 -74 41 -53 45 -64 45 -113 0 -100 -86 -303 -166 -392 -25
-28 -78 -70 -118 -93 -70 -41 -136 -94 -136 -110 0 -4 17 -8 38 -8 48 0 55 -8
162 -170 123 -187 150 -247 150 -340 0 -116 17 -185 72 -296 45 -91 77 -206
51 -179 -23 23 -255 379 -323 495 -40 69 -112 204 -160 300 l-88 175 59 63
c45 48 74 93 118 185 83 171 141 364 121 397 -16 26 -37 -8 -60 -93 -42 -156
-116 -328 -179 -414 -30 -42 -88 -78 -164 -102 -20 -7 -42 -11 -48 -9 -6 2 15
42 46 88 72 107 104 172 145 285 31 87 43 175 27 191 -15 15 -39 -25 -59 -97
-27 -104 -59 -179 -115 -271 -87 -145 -181 -230 -226 -206 -28 15 -16 58 60
226 59 131 103 243 103 263 0 12 -60 29 -160 43 -132 20 -195 54 -232 125 -32
61 -36 121 -14 216 8 33 13 61 11 63 -2 2 -115 -1 -251 -7 -1093 -47 -1295
-36 -1539 83 -125 61 -186 111 -220 181 -26 52 -27 62 -22 153 4 80 50 298 82
389 3 9 43 -6 125 -47 67 -33 137 -62 156 -65z m-193 -639 c103 -50 270 -103
424 -135 123 -25 269 -27 558 -6 110 8 264 15 342 15 l141 0 16 -47 c8 -27 29
-104 46 -173 49 -194 131 -400 160 -400 15 0 12 24 -10 71 -38 84 -26 86 122
29 57 -22 122 -44 145 -50 51 -13 63 -41 38 -89 -65 -127 -554 -323 -898 -361
-109 -11 -210 -3 -373 30 -286 59 -514 157 -608 260 -45 50 -96 151 -129 255
-55 174 -111 645 -77 645 6 0 52 -20 103 -44z m1773 -130 c8 -22 -31 -102 -58
-119 -12 -9 -41 -19 -63 -22 -22 -4 -50 -17 -63 -28 -28 -26 -36 -18 -56 59
-30 117 -23 124 125 124 86 0 111 -3 115 -14z m-5 -188 c11 -13 35 -41 54 -64
45 -53 143 -101 248 -121 45 -9 88 -18 96 -20 24 -6 6 -67 -51 -171 l-53 -97
-5 55 c-7 71 -23 82 -216 145 -179 59 -203 76 -210 155 -7 70 7 107 48 125 46
20 66 18 89 -7z m1344 -419 c67 -126 193 -252 310 -309 100 -50 147 -54 463
-40 379 17 507 7 532 -41 21 -39 -14 -53 -240 -97 -285 -56 -351 -88 -334
-158 4 -15 42 -65 86 -113 101 -110 185 -235 258 -386 75 -155 110 -262 117
-355 5 -67 3 -78 -17 -102 -12 -16 -27 -28 -35 -28 -23 0 -94 90 -178 225
-102 166 -152 240 -194 289 -41 49 -41 68 -3 116 36 46 51 100 27 100 -9 0
-57 -35 -107 -77 -117 -100 -211 -168 -280 -203 -76 -38 -202 -77 -281 -85
-90 -10 -97 -15 -68 -55 22 -28 24 -42 24 -133 0 -110 -6 -140 -28 -131 -45
17 -96 188 -102 341 -4 120 -13 152 -77 274 -42 80 -43 86 -44 178 0 65 -6
111 -18 141 -23 61 -150 292 -198 362 l-40 57 21 34 c31 50 158 157 219 184
30 13 70 35 90 49 21 13 44 23 52 22 8 -2 29 -28 45 -59z m-2959 -243 c38 -37
44 -49 44 -85 0 -62 -24 -65 -72 -12 -37 42 -56 96 -44 126 9 24 26 18 72 -29z
m1784 23 c0 -73 -113 -159 -170 -129 -27 15 -25 31 8 63 30 29 129 87 150 87
6 0 12 -9 12 -21z m111 -65 c12 -14 30 -16 136 -9 91 5 123 4 123 -5 0 -24
-244 -679 -394 -1057 -326 -825 -933 -2602 -1136 -3333 -77 -275 -110 -333
-188 -332 -58 1 -116 19 -137 42 -28 31 -15 104 60 310 37 102 147 424 245
715 98 292 278 820 401 1175 122 355 358 1050 524 1545 166 495 309 915 318
933 20 36 29 39 48 16z m664 -639 c206 -342 332 -593 449 -898 85 -220 108
-363 146 -887 40 -557 105 -998 207 -1409 l36 -145 -44 -38 c-136 -119 -460
-208 -709 -195 -116 6 -192 27 -215 60 -11 16 -15 52 -15 143 0 214 -15 353
-74 694 -4 19 -11 278 -15 575 -10 586 -12 611 -69 742 -17 37 -35 92 -41 120
-16 79 -54 156 -213 429 -80 137 -158 272 -173 300 l-28 50 71 170 c73 174
128 319 202 529 23 66 65 178 92 248 l51 128 104 -198 c58 -109 165 -297 238
-418z m-2384 564 c8 -16 6 -43 -12 -120 -17 -75 -19 -103 -11 -111 9 -9 17 -6
35 10 30 28 46 28 180 -8 62 -16 141 -32 177 -35 103 -10 110 -13 126 -50 30
-72 54 -30 54 92 0 97 7 113 51 113 36 0 59 -33 59 -85 0 -43 26 -145 37 -145
4 0 18 14 32 31 24 29 33 32 116 40 62 6 104 17 137 34 57 30 64 30 119 5 24
-11 60 -20 79 -20 57 0 136 44 206 115 63 65 148 115 165 98 4 -4 -26 -116
-67 -248 -81 -264 -93 -295 -105 -295 -4 0 -29 19 -55 41 -47 40 -50 41 -104
36 -84 -9 -250 -55 -297 -83 -62 -36 -83 -29 -83 27 0 63 -59 -24 -165 -245
-151 -311 -246 -560 -275 -720 -18 -100 -8 -405 15 -464 10 -23 26 -47 37 -53
27 -15 48 -69 48 -127 0 -84 35 -153 175 -349 l38 -53 -41 -117 c-23 -65 -112
-323 -198 -573 -86 -250 -161 -466 -166 -479 -8 -22 -14 -10 -48 91 -75 225
-165 390 -331 609 -273 358 -481 859 -514 1239 -12 135 25 354 180 1070 93
428 112 523 125 624 4 38 12 72 17 77 4 4 28 -5 52 -21 24 -17 54 -30 65 -30
26 0 66 26 66 43 0 22 31 57 50 57 11 0 24 -9 31 -21z m1360 -13 c16 -34 5
-69 -33 -107 -60 -60 -144 -84 -198 -56 -26 13 -70 71 -70 92 0 21 195 92 258
94 25 1 35 -4 43 -23z m-1040 -49 c122 -30 163 -53 167 -93 5 -46 -18 -59
-102 -57 -47 1 -106 12 -175 33 -163 49 -183 65 -145 118 13 19 24 22 87 22
41 0 113 -10 168 -23z m698 -36 c12 -8 13 -15 4 -34 -32 -69 -270 -113 -306
-56 -13 21 -1 65 20 74 50 20 257 32 282 16z m270 -490 c45 -45 40 -133 -18
-331 -39 -134 -507 -1529 -515 -1538 -15 -14 -99 81 -156 175 -33 54 -35 62
-33 136 l3 79 -44 43 c-30 29 -47 55 -53 82 -4 21 -8 133 -8 248 0 165 4 222
16 267 22 75 189 463 264 613 72 144 74 145 285 204 165 46 230 51 259 22z
m2190 -416 c84 -381 94 -461 66 -514 -30 -59 -61 -44 -102 47 -29 65 -215 604
-210 608 17 17 183 102 188 96 4 -4 30 -110 58 -237z m-350 66 c42 -27 39
-445 -5 -550 -13 -30 -16 -33 -29 -20 -21 21 -102 297 -130 442 -16 84 -5 103
75 122 68 16 72 17 89 6z m-2091 -2133 c27 -84 79 -216 116 -294 91 -193 89
-217 -18 -314 -109 -99 -309 -215 -420 -244 -61 -16 -86 -13 -86 11 0 33 266
814 322 946 11 26 24 47 28 47 4 0 30 -69 58 -152z m69 -846 c27 -71 24 -176
-7 -237 -49 -95 -153 -142 -211 -96 -25 19 -119 213 -119 244 0 13 171 108
249 138 55 20 63 16 88 -49z m-402 -112 c30 -58 21 -88 -48 -155 -66 -65 -114
-101 -123 -92 -6 6 21 116 42 172 39 100 98 135 129 75z m623 -56 c85 -42 172
-144 172 -201 0 -24 -48 -97 -96 -147 -32 -33 -41 -37 -68 -32 -17 4 -54 9
-82 12 -46 6 -53 4 -68 -17 -9 -13 -16 -33 -16 -44 0 -48 -151 -301 -267 -446
-127 -159 -335 -275 -582 -325 -138 -27 -300 -3 -316 47 -9 28 2 87 46 233 22
71 39 131 39 133 0 2 42 0 93 -3 74 -5 99 -3 122 9 67 35 92 81 130 243 37
154 54 184 184 317 l116 119 45 -51 c69 -78 138 -98 231 -66 71 24 115 67 156
153 20 42 41 80 47 84 21 14 62 8 114 -18z m1643 -199 c0 -127 -10 -149 -73
-166 -83 -22 -210 10 -271 69 -25 23 -97 139 -97 154 0 3 44 9 98 13 99 7 123
11 247 44 95 26 97 23 96 -114z m275 25 c359 -58 552 -114 754 -216 253 -130
480 -328 480 -421 0 -47 -168 -130 -320 -159 -108 -21 -391 -18 -671 6 -462
40 -538 65 -658 213 -30 37 -58 67 -62 67 -4 0 -39 -29 -78 -64 -95 -88 -125
-102 -203 -98 -37 3 -94 55 -125 115 -32 64 -28 113 16 219 42 99 118 218 140
218 9 0 44 -23 76 -50 105 -89 210 -123 310 -101 92 21 125 80 125 224 0 61 3
77 15 77 8 0 98 -14 201 -30z m-3124 -423 c24 -25 56 -37 95 -37 47 0 113 -18
113 -30 0 -18 -48 -41 -96 -46 -58 -7 -121 8 -158 37 -30 24 -33 45 -9 71 19
21 37 23 55 5z"/>
<path d="M3119 11305 c255 -17 419 -38 497 -65 76 -26 93 -26 69 0 -45 50
-172 68 -520 74 l-260 5 214 -14z"/>
<path d="M2894 11209 c-92 -8 -148 -22 -216 -51 -75 -32 -56 -38 40 -12 49 12
136 30 195 40 59 9 107 21 107 26 0 9 -9 9 -126 -3z"/>
<path d="M3560 11130 c14 -11 45 -27 70 -36 25 -8 77 -31 116 -50 75 -36 114
-43 114 -20 0 28 -237 126 -303 126 -22 0 -22 -1 3 -20z"/>
<path d="M3216 10992 c-11 -17 9 -23 117 -33 189 -17 271 -29 371 -54 95 -24
128 -25 96 -4 -24 15 -135 48 -239 69 -113 24 -335 38 -345 22z"/>
<path d="M2893 10933 c-42 -14 -58 -33 -29 -33 24 0 116 33 116 42 0 12 -39 8
-87 -9z"/>
<path d="M2895 10802 c-99 -29 -225 -104 -225 -133 0 -14 38 -5 115 28 33 14
94 37 135 50 111 37 122 42 118 56 -7 19 -76 18 -143 -1z"/>
<path d="M3563 10755 c-8 -23 21 -45 60 -45 36 0 62 -14 114 -61 46 -43 73
-50 73 -20 0 26 -52 68 -125 102 -86 40 -113 45 -122 24z"/>
<path d="M1640 10633 c0 -10 20 -58 45 -107 25 -48 45 -100 45 -115 0 -15 -9
-53 -21 -85 -28 -80 -19 -100 26 -56 26 25 40 31 60 27 27 -5 27 -4 22 40 -8
73 -137 313 -168 313 -5 0 -9 -8 -9 -17z"/>
<path d="M3114 10614 c-15 -10 -67 -16 -170 -21 -109 -4 -153 -10 -166 -20
-27 -24 -68 -138 -68 -191 0 -70 27 -105 115 -147 37 -18 67 -25 113 -25 106
0 158 36 207 143 35 75 45 189 21 234 -21 41 -27 44 -52 27z m-5 -99 c8 -8 16
-40 19 -72 l5 -58 -41 52 c-57 71 -91 78 -141 29 -46 -45 -99 -62 -146 -46
-76 25 -49 86 50 113 39 11 239 -3 254 -18z m-81 -87 c17 -17 15 -25 -8 -31
-23 -6 -56 16 -46 31 9 15 39 15 54 0z m-124 -68 c144 -26 168 -34 164 -58 -8
-44 -152 -79 -220 -53 -31 12 -78 60 -93 96 -15 34 -10 48 13 41 10 -3 70 -15
136 -26z"/>
<path d="M2455 10510 c7 -12 92 -12 120 0 14 6 -3 9 -53 9 -46 1 -71 -3 -67
-9z"/>
<path d="M2501 10437 c-13 -6 -28 -22 -32 -34 -12 -32 15 -30 65 3 29 20 35
28 25 35 -19 12 -30 11 -58 -4z"/>
<path d="M2229 10318 c-99 -134 -98 -249 3 -363 32 -38 76 -65 103 -65 30 0
14 37 -45 103 -84 95 -95 120 -80 171 7 23 21 59 32 80 11 21 26 56 34 78 11
33 11 38 -1 38 -8 0 -29 -19 -46 -42z"/>
<path d="M2629 10272 c18 -34 117 -100 129 -87 11 11 -97 105 -119 105 -16 0
-18 -3 -10 -18z"/>
<path d="M3114 10234 c-63 -60 -102 -84 -190 -118 -122 -46 -143 -80 -36 -58
128 27 292 135 292 193 0 16 -4 29 -8 29 -5 0 -31 -21 -58 -46z"/>
<path d="M3273 9920 c-70 -19 -113 -44 -113 -64 0 -8 -3 -21 -6 -30 -10 -25 9
-19 57 18 24 18 60 39 81 45 30 10 57 37 46 46 -2 1 -31 -5 -65 -15z"/>
<path d="M2861 9898 c-79 -11 -118 -31 -207 -107 -99 -84 -193 -211 -155 -211
5 0 35 30 66 66 110 125 258 207 430 239 50 9 92 19 94 21 8 7 -163 2 -228 -8z"/>
<path d="M2786 9732 c-11 -18 33 -79 90 -125 124 -100 319 -181 489 -201 l100
-12 -3 -47 c-3 -37 -1 -47 12 -47 20 0 46 39 46 70 0 32 -35 67 -81 80 -19 6
-77 17 -129 25 -52 9 -117 23 -145 31 -85 28 -197 91 -270 154 -80 69 -102 84
-109 72z"/>
<path d="M3106 9249 c48 -21 191 -39 180 -21 -8 14 -134 42 -183 41 l-38 -1
41 -19z"/>
<path d="M1620 11210 c0 -22 109 -53 230 -64 l65 -7 -60 26 c-107 46 -235 70
-235 45z"/>
<path d="M1630 11021 c0 -13 53 -30 113 -36 109 -13 122 -26 67 -65 -55 -39
-34 -100 34 -100 31 0 34 16 5 25 -43 14 -15 45 69 76 17 6 32 17 32 24 0 29
-15 33 -292 80 -16 2 -28 1 -28 -4z"/>
<path d="M2432 9098 c-18 -18 -15 -40 6 -36 9 2 18 13 20 26 4 24 -7 29 -26
10z"/>
<path d="M2331 8991 c-24 -24 -54 -81 -47 -88 9 -10 99 84 92 95 -10 17 -23
15 -45 -7z"/>
<path d="M4187 5075 c-76 -46 -112 -60 -170 -69 -50 -8 -72 -30 -46 -48 22
-14 133 -1 189 23 51 22 120 87 120 114 0 24 -31 17 -93 -20z"/>
<path d="M4813 2974 c-10 -27 6 -173 37 -329 50 -253 40 -256 -50 -15 -73 196
-110 275 -130 275 -12 0 -15 -14 -14 -65 1 -52 16 -107 68 -264 70 -207 84
-287 27 -151 -34 83 -47 105 -62 105 -18 0 1 -171 24 -214 9 -19 10 -19 23 -1
11 14 14 15 14 4 0 -8 -7 -24 -15 -35 -15 -18 -16 -18 -45 15 -16 19 -52 91
-81 160 -53 131 -129 287 -173 356 -20 32 -25 36 -26 19 0 -33 43 -189 110
-398 33 -104 59 -193 57 -199 -1 -5 -22 34 -46 87 -24 53 -48 96 -53 96 -12 0
0 -43 43 -153 22 -53 39 -113 39 -131 0 -36 -24 -71 -42 -60 -5 4 -27 44 -49
90 -21 46 -41 84 -45 84 -11 0 6 -71 37 -147 16 -40 29 -77 29 -81 0 -4 -27
-38 -61 -77 -57 -67 -99 -132 -99 -155 0 -24 47 -6 143 54 133 83 185 109 208
103 24 -6 25 25 4 103 -17 64 -19 100 -5 100 16 0 41 -60 38 -92 -6 -61 55
-64 75 -4 7 22 5 31 -12 47 -17 16 -21 32 -21 80 0 98 22 70 99 -122 l13 -34
12 37 c15 49 22 54 45 34 27 -24 41 -12 41 33 0 46 21 79 37 59 22 -25 53
-119 64 -189 17 -113 44 -164 74 -139 22 18 101 209 161 388 30 92 64 181 75
199 24 39 71 78 262 217 81 59 147 112 147 117 0 11 -68 -31 -220 -136 -161
-111 -193 -122 -250 -90 -45 25 -103 18 -199 -25 -49 -22 -96 -40 -105 -40
-24 0 -39 39 -91 225 -71 254 -93 307 -112 259z m102 -392 c22 -108 15 -151
-9 -52 -20 87 -32 187 -17 155 5 -12 16 -58 26 -103z m-379 -29 c30 -68 104
-280 104 -297 -1 -21 -28 38 -78 174 -27 74 -53 145 -57 158 -12 42 5 22 31
-35z m780 -18 c18 -14 15 -19 -67 -98 -93 -90 -174 -149 -199 -145 -9 2 -21
25 -29 56 -12 44 -12 57 -1 78 15 28 129 86 213 109 66 18 60 17 83 0z m-6
-157 c0 -50 -161 -481 -173 -462 -15 25 -67 247 -67 286 0 42 4 49 39 77 44
35 181 121 193 121 4 0 8 -10 8 -22z m-334 -33 c16 -39 19 -91 5 -100 -19 -11
-38 56 -32 118 2 26 11 21 27 -18z m-99 -127 c-2 -13 -4 -5 -4 17 -1 22 1 32
4 23 2 -10 2 -28 0 -40z m-257 -167 c17 -32 12 -69 -12 -85 -27 -19 -37 -11
-45 37 -9 57 33 92 57 48z m-100 -92 c17 -30 -7 -59 -79 -98 l-61 -32 57 75
c32 42 61 76 65 76 4 0 12 -9 18 -21z"/>
<path d="M4264 2574 c4 -27 17 -114 31 -194 l23 -145 1 102 c1 56 5 105 11
108 17 10 12 37 -19 101 -39 83 -56 93 -47 28z"/>
<path d="M4321 2214 c0 -11 3 -14 6 -6 3 7 2 16 -1 19 -3 4 -6 -2 -5 -13z"/>
</g>
</svg>
