<svg version="1.0" xmlns="http://www.w3.org/2000/svg"
 width="576.000000pt" height="1114.000000pt" viewBox="0 0 576.000000 1114.000000"
 preserveAspectRatio="xMidYMid meet">

<g transform="translate(0.000000,1114.000000) scale(0.100000,-0.100000)"
fill="#000000" stroke="none">
<path d="M3622 10884 c-33 -23 -182 -50 -372 -69 -750 -72 -912 -118 -1154
-331 -96 -84 -231 -235 -292 -326 -129 -193 -165 -461 -105 -781 16 -85 37
-206 46 -268 33 -235 70 -303 180 -334 78 -22 95 -42 95 -114 0 -124 54 -248
171 -393 63 -79 388 -400 425 -421 12 -7 -28 -53 -193 -220 -115 -117 -243
-255 -285 -307 -414 -522 -634 -1133 -788 -2185 -46 -317 -76 -472 -125 -662
-42 -161 -69 -233 -130 -350 -26 -50 -45 -98 -42 -106 3 -8 43 -40 89 -73 134
-94 173 -135 204 -217 38 -100 55 -132 113 -211 85 -114 140 -255 201 -511 45
-189 44 -226 -9 -290 -38 -46 -61 -106 -61 -159 0 -17 -18 -45 -50 -81 -29
-32 -50 -65 -50 -78 0 -86 -203 -258 -450 -382 -128 -64 -277 -124 -345 -140
l-50 -11 -3 -81 c-2 -48 -8 -85 -15 -91 -7 -5 -50 -18 -97 -27 -158 -31 -204
-66 -239 -180 -48 -155 -47 -321 3 -565 55 -265 161 -460 341 -628 87 -82 185
-136 286 -158 107 -24 381 -24 468 -1 108 29 250 146 291 241 18 38 18 47 5
107 -19 92 -37 131 -86 184 -73 79 -163 113 -353 134 -55 7 -101 13 -103 15
-5 5 29 151 38 160 5 6 38 3 84 -8 144 -34 224 7 250 127 6 32 23 49 110 112
33 24 101 81 150 125 50 45 178 152 285 238 231 187 373 315 533 482 144 151
164 183 183 297 17 110 44 405 44 496 0 37 4 67 9 67 19 0 139 -98 224 -182
61 -61 95 -103 112 -141 17 -39 34 -61 62 -78 50 -30 53 -35 53 -94 0 -74 29
-168 139 -449 54 -138 111 -289 126 -336 35 -110 43 -238 21 -333 -24 -104
-22 -123 21 -162 l38 -34 -24 -68 c-29 -84 -26 -105 18 -119 53 -17 65 -51 66
-179 0 -60 -2 -135 -5 -165 l-5 -54 95 -23 c293 -71 782 -14 1145 134 347 141
614 363 686 570 26 76 25 174 -1 229 -25 50 -116 139 -165 159 -49 21 -179 19
-294 -5 -54 -11 -195 -49 -315 -85 -250 -75 -296 -85 -296 -63 0 8 15 39 33
69 19 30 50 81 71 114 77 126 66 177 -46 214 -126 41 -250 325 -457 1044 -155
537 -146 521 -540 948 -62 68 -150 168 -194 222 l-79 99 51 52 c29 29 53 62
54 74 0 12 -14 53 -33 91 -18 39 -31 73 -28 76 3 3 79 -17 169 -45 90 -28 201
-57 247 -65 94 -17 106 -22 181 -78 106 -78 192 -93 331 -57 41 10 75 18 75
17 32 -61 123 -215 148 -251 38 -53 81 -86 111 -86 30 0 91 72 106 123 16 60
8 102 -41 206 -21 46 -39 88 -39 92 0 5 45 -14 100 -41 105 -53 191 -81 223
-72 70 18 26 172 -88 306 l-54 65 107 -6 c163 -8 218 21 198 101 -18 72 -160
170 -263 183 -29 3 -53 9 -53 12 0 3 30 22 67 41 83 43 112 84 93 131 -15 35
-66 64 -131 74 -59 9 -170 -12 -375 -70 -204 -58 -203 -58 -196 0 3 35 -1 56
-22 99 -15 30 -34 57 -43 60 -23 9 -83 -30 -213 -139 -63 -54 -130 -104 -148
-113 l-33 -16 -152 77 c-312 158 -482 284 -507 377 -7 27 -11 91 -8 160 l3
116 53 104 53 104 -70 70 -71 71 -10 675 c-5 371 -10 749 -10 839 l0 164 58
-7 c31 -3 116 -9 187 -13 155 -7 207 4 305 68 78 50 263 233 347 344 208 276
357 571 398 790 22 114 16 200 -19 284 -38 94 -46 162 -40 360 6 196 15 150
-81 411 -23 64 -25 77 -14 95 7 11 15 38 19 60 l5 40 80 -3 c44 -1 86 0 93 3
16 6 -16 55 -135 207 -129 166 -183 248 -183 280 0 16 11 46 25 67 14 21 27
51 28 67 2 26 -1 29 -33 32 -19 2 -102 -4 -185 -14 -218 -25 -194 -31 -216 55
-27 107 -61 134 -117 95z m65 -76 c4 -7 10 -41 13 -76 3 -34 8 -63 13 -64 4 0
88 5 188 12 114 8 184 9 190 3 6 -6 -2 -25 -21 -51 -49 -68 -52 -60 138 -274
131 -147 164 -219 93 -203 -45 10 -68 -9 -87 -70 -10 -30 -20 -55 -24 -55 -3
0 -18 24 -32 53 -14 30 -48 80 -75 113 -61 73 -76 99 -68 124 9 29 -15 35 -40
9 -12 -13 -44 -64 -70 -114 -65 -123 -146 -234 -228 -312 -69 -65 -111 -92
-124 -79 -4 4 1 37 11 74 10 37 21 108 24 157 l5 90 -24 -20 c-13 -11 -78 -72
-144 -135 -173 -166 -410 -350 -451 -350 -21 0 -18 14 26 110 53 118 83 211
73 221 -9 9 -127 -107 -270 -264 l-71 -78 -4 198 c-5 201 -14 255 -47 272 -14
8 -16 3 -13 -37 2 -36 -3 -58 -23 -92 -37 -64 -73 -144 -102 -225 -37 -102
-87 -197 -136 -257 -99 -123 -122 -193 -112 -339 6 -83 5 -99 -7 -99 -23 0
-41 26 -107 157 -83 164 -145 217 -230 198 -41 -9 -98 -62 -129 -120 -15 -27
-32 -50 -37 -50 -27 0 -57 229 -59 440 -1 175 10 228 79 371 106 220 301 418
525 533 222 114 484 165 990 191 214 11 295 21 313 39 15 15 44 14 54 -1z
m394 -716 c62 -95 162 -292 184 -362 11 -39 19 -119 24 -280 7 -194 12 -233
31 -285 61 -167 62 -245 9 -411 -117 -365 -534 -930 -765 -1036 -89 -41 -330
-26 -579 36 -198 50 -434 195 -626 386 -109 109 -180 203 -232 310 l-42 85 0
160 c0 88 -2 162 -5 164 -3 3 -24 -8 -47 -24 -36 -23 -50 -27 -84 -22 -49 6
-107 49 -131 98 -22 42 -23 140 -3 227 48 202 174 282 269 170 23 -26 53 -86
82 -160 26 -65 55 -130 66 -143 23 -30 75 -46 102 -32 18 9 19 19 12 202 l-7
192 66 64 c90 86 119 134 161 264 40 125 86 215 111 215 14 0 15 -12 9 -97
-20 -312 -20 -303 -4 -303 8 0 60 53 116 118 113 131 198 218 168 168 -43 -69
-106 -198 -106 -218 0 -18 4 -20 35 -15 19 3 71 24 117 47 77 38 113 62 202
133 19 16 57 36 83 46 34 12 52 25 62 46 28 60 181 194 181 159 0 -3 -14 -46
-31 -94 -17 -49 -29 -102 -27 -117 14 -121 307 122 459 379 l33 58 30 -28 c16
-15 50 -60 77 -100z m-1351 -2296 c16 -13 75 -38 132 -56 150 -48 178 -64 178
-101 0 -60 -58 -140 -117 -160 -47 -15 -90 2 -146 57 -81 82 -135 212 -108
263 15 27 27 27 61 -3z m-51 -195 c42 -81 98 -143 144 -160 44 -17 127 -13
175 9 23 10 42 24 42 30 0 5 5 10 10 10 6 0 10 -15 10 -32 -1 -79 -54 -118
-163 -118 -144 0 -219 69 -276 254 -11 37 -21 80 -21 94 0 24 1 24 19 8 11
-10 38 -52 60 -95z m-99 3 c0 -34 43 -145 76 -194 34 -50 94 -94 154 -110 43
-12 143 -9 216 6 l31 6 6 -494 c3 -271 3 -549 -1 -617 l-7 -123 -75 91 c-96
117 -159 213 -215 326 -52 106 -80 193 -131 408 -21 86 -41 157 -46 157 -23 0
3 -208 47 -360 54 -190 107 -286 334 -600 l140 -195 -85 -83 c-141 -136 -296
-234 -446 -280 -81 -25 -297 -57 -308 -45 -21 22 -185 545 -235 746 -56 229
-71 277 -87 277 -4 0 -8 -25 -8 -55 0 -42 -5 -60 -20 -75 -25 -25 -25 -25 4
-63 14 -18 34 -54 46 -81 24 -57 156 -496 211 -703 20 -78 40 -146 43 -151 13
-21 85 -46 154 -52 85 -9 98 -18 146 -104 94 -166 427 -521 642 -684 117 -88
184 -181 184 -256 0 -29 -7 -41 -42 -69 -99 -80 -336 -194 -668 -321 -210 -81
-373 -131 -494 -152 -120 -21 -354 -14 -479 15 -279 64 -537 203 -537 287 0
15 15 59 34 99 96 202 178 548 271 1143 81 513 124 708 221 994 146 431 274
681 481 938 84 105 336 361 382 388 40 24 61 19 61 -14z m584 -1740 c41 -16
-13 -125 -104 -214 -111 -108 -386 -244 -532 -263 -85 -10 -197 1 -224 24 -41
34 3 59 102 59 205 0 384 83 589 272 81 76 143 128 151 128 1 0 9 -3 18 -6z
m-66 -296 c7 -7 12 -36 12 -65 0 -49 -2 -53 -19 -44 -10 6 -26 27 -36 46 -16
35 -16 38 1 56 20 22 26 23 42 7z m-36 -168 c96 -140 225 -262 398 -378 145
-97 321 -171 374 -158 33 8 131 75 221 151 137 115 175 120 175 24 0 -40 -5
-55 -31 -84 -38 -43 -73 -62 -129 -71 -42 -7 -63 -30 -40 -44 16 -10 41 -3
280 75 318 105 484 138 568 115 46 -12 76 -50 55 -71 -29 -29 -341 -129 -404
-129 -43 0 -62 -17 -27 -24 13 -3 79 -7 148 -9 186 -7 346 -54 409 -121 28
-30 23 -52 -16 -67 -30 -11 -250 -13 -383 -3 l-85 6 91 -45 c150 -74 284 -215
284 -298 0 -21 -5 -41 -11 -45 -6 -3 -96 35 -200 87 -104 51 -191 90 -195 87
-3 -4 25 -71 62 -150 53 -112 69 -156 72 -201 4 -53 2 -61 -24 -88 -15 -16
-33 -29 -40 -29 -22 0 -50 38 -113 154 -88 162 -105 174 -217 156 -157 -26
-267 -1 -340 76 -48 51 -67 59 -198 85 -339 68 -587 209 -868 492 -115 115
-288 317 -327 380 -26 43 -17 67 25 67 27 0 141 41 284 104 58 25 114 45 124
43 12 -1 43 -36 78 -87z m245 -1342 c99 -102 505 -564 549 -624 101 -141 153
-278 264 -699 119 -453 219 -723 313 -846 38 -49 126 -113 170 -124 21 -6 27
-13 27 -35 0 -60 -182 -289 -314 -395 -93 -76 -341 -241 -446 -297 -100 -54
-181 -82 -210 -73 -24 8 -25 19 -5 75 22 63 19 82 -20 120 -43 42 -43 54 -5
195 16 61 30 124 30 141 0 17 -14 56 -30 86 -17 31 -59 134 -94 230 -35 95
-86 229 -114 298 -60 150 -80 221 -86 316 -5 84 -13 101 -62 139 -20 15 -42
42 -49 59 -16 38 -87 107 -220 213 -123 100 -169 147 -190 195 -17 43 -19 139
-5 278 17 161 27 194 85 279 70 102 85 149 85 265 0 75 4 98 18 115 14 17 234
140 252 141 3 0 29 -24 57 -52z m-377 -140 c27 -45 25 -93 -7 -191 -27 -80
-27 -81 -35 -47 -11 52 -22 236 -15 254 10 26 36 18 57 -16z m-112 -53 c24
-52 25 -127 3 -215 -29 -119 -38 -223 -56 -630 -20 -472 -32 -648 -50 -708
-21 -71 -88 -157 -239 -307 -164 -163 -322 -302 -496 -435 -338 -259 -494
-414 -533 -532 -3 -9 -17 -24 -31 -33 -23 -16 -29 -15 -83 0 -69 20 -154 62
-246 121 -134 86 -194 159 -284 339 -62 123 -93 217 -95 281 -1 42 3 51 31 75
17 14 93 52 169 84 219 93 328 152 421 230 108 90 211 200 211 225 0 10 20 41
43 69 42 49 67 105 67 150 0 32 18 61 63 103 l40 38 -6 82 c-8 129 -108 491
-168 609 -15 31 -53 87 -83 125 -66 82 -116 176 -116 216 0 28 2 29 33 23 17
-4 74 -20 126 -36 131 -41 189 -48 411 -55 107 -4 203 -11 213 -16 51 -26 -33
-255 -131 -357 l-42 -45 -36 35 -35 34 7 -30 c12 -53 33 -95 46 -95 26 0 77
40 118 91 70 89 150 278 150 355 0 42 46 66 295 157 249 90 265 93 283 52z
m-2153 -2259 c13 -13 49 -75 81 -137 75 -151 100 -186 215 -304 139 -144 149
-160 149 -256 0 -66 -3 -82 -20 -99 -12 -12 -18 -25 -15 -30 10 -17 79 -30
154 -30 82 0 82 -5 1 -40 -148 -65 -207 -128 -220 -235 -4 -36 -14 -72 -20
-80 -47 -57 -251 69 -350 214 -138 205 -210 499 -180 745 16 137 43 218 81
250 40 34 91 35 124 2z m-236 -40 c9 -11 8 -40 -3 -125 -27 -188 -18 -333 30
-519 51 -196 142 -360 262 -474 72 -68 125 -98 205 -120 71 -19 98 -1 116 77
8 33 18 78 23 100 15 62 77 114 189 160 126 51 175 52 247 6 94 -60 164 -184
146 -258 -16 -61 -185 -200 -278 -228 -69 -21 -255 -29 -381 -16 -128 13 -192
39 -292 121 -91 74 -157 160 -218 285 -188 385 -230 832 -92 983 24 26 30 27
46 8z m4966 -17 c68 -25 118 -67 148 -123 17 -33 22 -58 22 -126 0 -75 -4 -93
-32 -153 -37 -78 -109 -159 -208 -232 -78 -58 -287 -186 -381 -233 -187 -94
-569 -163 -914 -166 -180 -1 -267 11 -291 40 -26 32 6 37 298 45 330 9 457 27
622 84 111 39 311 133 311 147 0 5 -15 39 -34 76 -49 98 -76 193 -76 271 0 93
38 168 126 250 73 69 137 105 222 125 81 20 123 19 187 -5z m-435 -68 c0 -4
-20 -39 -45 -77 -107 -162 -122 -315 -50 -493 14 -33 25 -65 25 -70 0 -5 -46
-28 -103 -50 -420 -164 -991 -216 -1046 -95 -14 31 -14 175 0 206 6 15 49 43
122 80 62 32 202 116 312 188 238 157 301 187 468 229 71 18 165 46 210 61 88
31 107 35 107 21z"/>
<path d="M3933 9810 c-37 -15 -17 -37 37 -42 33 -3 61 -15 91 -36 66 -49 88
-37 53 29 -25 50 -118 74 -181 49z"/>
<path d="M3163 9638 c-41 -29 -93 -127 -127 -238 -93 -307 -33 -462 185 -478
l70 -5 40 43 c117 123 165 378 95 507 -49 90 -162 193 -211 193 -11 0 -35 -10
-52 -22z m143 -92 c55 -56 114 -149 114 -178 0 -11 -13 -21 -37 -28 -44 -12
-331 -35 -339 -27 -3 3 6 37 20 76 55 153 99 211 159 211 24 0 42 -12 83 -54z
m19 -287 c8 -23 -7 -45 -24 -35 -12 8 -15 39 -4 49 12 12 22 7 28 -14z m-79
-38 c62 -55 94 -52 136 14 l20 30 -7 -50 c-9 -75 -62 -173 -111 -208 -106 -74
-210 -32 -250 101 -27 87 1 137 84 152 50 8 86 -3 128 -39z"/>
<path d="M3937 9606 c-28 -30 -91 -179 -103 -241 l-7 -40 -15 35 -16 35 -8
-60 c-12 -76 -3 -310 12 -350 17 -44 49 -74 103 -97 97 -42 113 -104 45 -173
-54 -53 -137 -85 -240 -92 -91 -7 -108 -14 -88 -39 12 -14 27 -16 95 -11 133
8 261 71 291 142 8 19 14 61 14 93 0 66 -16 88 -80 115 -45 18 -100 80 -100
112 0 31 17 33 22 4 7 -50 114 -86 175 -60 33 13 69 63 90 123 39 113 36 348
-6 442 -23 53 -52 74 -113 82 -42 6 -49 4 -71 -20z m144 -47 c4 -6 14 -48 23
-93 9 -44 19 -91 22 -104 l5 -23 -122 3 c-144 4 -153 9 -125 81 38 99 105 164
161 153 16 -4 32 -11 36 -17z m24 -406 c-28 -95 -107 -154 -163 -122 -41 23
-62 61 -74 131 -9 51 -9 73 0 93 11 24 16 26 64 23 50 -3 53 -5 62 -35 7 -27
14 -33 36 -33 30 0 52 20 72 65 l13 30 3 -48 c2 -26 -4 -73 -13 -104z"/>
<path d="M1942 9168 c-21 -21 -13 -39 26 -54 59 -25 98 -60 134 -119 35 -59
42 -64 52 -39 11 28 -32 99 -98 163 -64 60 -91 72 -114 49z"/>
<path d="M2460 8928 c0 -16 19 -38 33 -38 4 0 7 10 5 22 -3 25 -38 39 -38 16z"/>
<path d="M3400 8393 c-160 -29 -440 -128 -440 -156 0 -13 49 -3 180 37 59 19
150 41 202 51 152 27 243 49 243 60 0 10 -139 16 -185 8z"/>
<path d="M3570 8193 c-54 -28 -76 -53 -45 -53 32 0 115 52 115 72 0 13 -13 10
-70 -19z"/>
<path d="M2770 8142 c0 -20 34 -52 56 -52 29 0 31 20 6 43 -19 17 -62 23 -62
9z"/>
<path d="M2880 3494 c0 -19 26 -46 70 -73 65 -40 67 -18 4 38 -41 36 -74 52
-74 35z"/>
<path d="M3100 3330 c0 -22 33 -60 51 -60 24 0 24 11 -2 44 -20 26 -49 35 -49
16z"/>
<path d="M3260 3140 c0 -12 69 -90 80 -90 15 0 -2 41 -30 70 -28 30 -50 39
-50 20z"/>
<path d="M3440 2904 c0 -5 23 -32 50 -59 28 -27 50 -45 50 -39 0 5 -22 32 -50
59 -27 27 -50 45 -50 39z"/>
<path d="M3596 2594 c-11 -29 12 -90 39 -102 22 -10 25 -9 25 9 0 22 -34 94
-49 103 -5 3 -12 -1 -15 -10z"/>
<path d="M3730 2190 c0 -31 6 -47 28 -68 l27 -27 3 31 c4 40 -22 104 -42 104
-12 0 -16 -11 -16 -40z"/>
<path d="M3810 1863 c0 -37 18 -93 36 -113 12 -12 14 -10 14 15 0 43 -18 101
-35 115 -13 11 -15 8 -15 -17z"/>
<path d="M4233 1788 c-83 -98 -183 -223 -198 -248 -17 -29 115 93 178 163 69
77 127 155 127 169 0 27 -38 -3 -107 -84z"/>
<path d="M3873 1540 c0 -30 2 -43 4 -27 2 15 2 39 0 55 -2 15 -4 2 -4 -28z"/>
<path d="M4021 1349 c-57 -22 -140 -51 -185 -64 l-81 -24 57 0 c89 -1 359 93
343 120 -9 14 -22 11 -134 -32z"/>
<path d="M1841 3585 c-1 -51 11 -75 37 -75 15 0 11 21 -18 85 l-18 40 -1 -50z"/>
<path d="M1997 3071 c-6 -25 14 -66 33 -66 22 0 24 44 4 66 -22 24 -30 24 -37
0z"/>
<path d="M2080 2782 c0 -41 3 -52 16 -52 14 0 16 8 11 41 -9 66 -27 73 -27 11z"/>
<path d="M2057 2563 c-11 -10 -8 -73 3 -73 6 0 10 18 10 40 0 41 -2 45 -13 33z"/>
<path d="M1904 2270 c-37 -56 -26 -74 19 -28 21 20 37 43 37 52 0 29 -29 17
-56 -24z"/>
<path d="M1650 2045 c-19 -19 -30 -35 -25 -35 13 0 75 50 75 61 0 17 -16 9
-50 -26z"/>
<path d="M1361 1835 c-17 -20 -31 -38 -31 -41 0 -8 33 13 70 45 31 27 33 30
14 31 -13 0 -35 -15 -53 -35z"/>
<path d="M960 1746 c0 -64 121 -331 208 -461 51 -76 128 -143 145 -126 12 12
-3 37 -83 136 -75 92 -119 168 -170 290 -39 95 -86 185 -95 185 -3 0 -5 -11
-5 -24z"/>
<path d="M1126 1651 c-16 -16 -26 -35 -24 -41 5 -15 72 31 76 53 5 26 -21 20
-52 -12z"/>
<path d="M562 1423 c-73 -70 -78 -164 -11 -198 43 -23 74 -18 109 16 99 100
91 219 -15 219 -37 0 -50 -6 -83 -37z m122 -30 c10 -24 -35 -106 -66 -123 -50
-27 -86 22 -56 78 26 50 109 81 122 45z"/>
<path d="M3853 862 c-52 -40 -49 -108 6 -137 61 -31 131 -12 152 43 29 76 -91
147 -158 94z m85 -32 c46 -44 14 -99 -49 -85 -39 9 -57 45 -41 80 15 31 59 34
90 5z"/>
</g>
</svg>
